<svg xmlns="http://www.w3.org/2000/svg" xmlns:xlink="http://www.w3.org/1999/xlink" id="logosandtypes_com" data-name="logosandtypes com" viewBox="0 0 150 150"><defs><style>.cls-1{fill:none;}.cls-2{fill:url(#linear-gradient);}.cls-3{fill:url(#linear-gradient-2);}.cls-4{fill:url(#linear-gradient-3);}.cls-5{fill:url(#linear-gradient-4);}</style><linearGradient id="linear-gradient" x1="-223.47" y1="439.99" x2="-223.47" y2="432.52" gradientTransform="matrix(6.43, 0, 0, -6.43, 1484.29, 2845.8)" gradientUnits="userSpaceOnUse"><stop offset="0.03" stop-color="#19aade"/><stop offset="0.95" stop-color="#134e8e"/></linearGradient><linearGradient id="linear-gradient-2" x1="-215.04" y1="430.62" x2="-215.04" y2="421.39" gradientTransform="matrix(6.43, 0, 0, -6.43, 1484.29, 2845.8)" gradientUnits="userSpaceOnUse"><stop offset="0.13" stop-color="#e02527"/><stop offset="0.74" stop-color="#a1141c"/></linearGradient><linearGradient id="linear-gradient-3" x1="-220.65" y1="428.58" x2="-215.9" y2="428.58" gradientTransform="matrix(6.43, 0, 0, -6.43, 1484.29, 2845.8)" gradientUnits="userSpaceOnUse"><stop offset="0.01" stop-color="#71251d"/><stop offset="0.74" stop-color="#c73127"/></linearGradient><linearGradient id="linear-gradient-4" x1="-222.37" y1="429.32" x2="-214.14" y2="429.32" gradientTransform="matrix(6.43, 0, 0, -6.43, 1484.29, 2845.8)" gradientUnits="userSpaceOnUse"><stop offset="0.15" stop-color="#e8ebee"/><stop offset="0.74" stop-color="#95a5af"/></linearGradient></defs><path class="cls-1" d="M0,0H150V150H0Z" transform="translate(0 0)"/><path class="cls-2" d="M15.56,15.92H30.69s9-.48,14.71,6.39l33,41.63H55.25S45,64.39,40.82,57.41Z" transform="translate(0 0)"/><path class="cls-3" d="M67.6,101.68l13.6,22.48s5,11.38,21.51,11.38H137.4L88.28,76.15,67.6,80.87S61.91,88.36,67.6,101.68Z" transform="translate(0 0)"/><path class="cls-4" d="M95.67,85.09l-8-9.65L67.64,80.87s-5.69,7.49,0,20.81l.84,1.42c-.07-.88-.69-14.63,27.19-18Z" transform="translate(0 0)"/><path class="cls-5" d="M68.42,103.07s-6.29-16.16,14.22-23.9c0,0,14.61-5.22,24.38-2.13,0,0-.68-11.8-24.67-11,0,0-12.67-.09-22.64,3.39,0,0-10.55,2.81-2.71,14.9Z" transform="translate(0 0)"/></svg>