<svg width="256" height="256" viewBox="0 0 256 256" fill="none" xmlns="http://www.w3.org/2000/svg">
<rect width="256" height="256" fill="white"/>
<g clip-path="url(#clip0_38_57)">
<path fill-rule="evenodd" clip-rule="evenodd" d="M256 51.0705C256 24.5402 234.451 3.00098 207.921 3.00098H48.0789C21.5489 3.00098 0 24.5402 0 51.0705V205.297C0 231.821 21.5489 253.367 48.0791 253.367H207.921C234.451 253.367 256 231.821 256 205.297L256 51.0705Z" fill="#0C3B7C"/>
<path fill-rule="evenodd" clip-rule="evenodd" d="M0.00869751 158.541H127.865V253.367H0.00879121L0.00869751 158.541Z" fill="#0C3B7C"/>
<path d="M116.346 168.721L95.7276 168.7V144.046C95.7276 138.778 97.771 136.036 102.279 135.41H116.347C126.379 135.41 132.868 141.735 132.868 151.973C132.868 162.488 126.543 168.711 116.346 168.721ZM95.7276 102.223V95.7329C95.7276 90.0545 98.1303 87.3539 103.398 87.0048H113.954C123 87.0048 128.422 92.4162 128.422 101.483C128.422 108.384 124.705 116.444 114.283 116.444H95.7276V102.223ZM142.675 126.826L138.947 124.731L142.202 121.948C145.991 118.693 152.337 111.372 152.337 98.7416C152.337 79.3959 137.335 66.9197 114.118 66.9197H87.6257V66.9094H84.6068C77.727 67.1662 72.2128 72.7625 72.141 79.6834V189.453H114.642C140.447 189.453 157.102 175.406 157.102 153.647C157.102 141.931 151.721 131.919 142.675 126.826Z" fill="white"/>
<path d="M168.171 174.289C168.171 165.904 174.934 159.12 183.267 159.12C191.62 159.12 198.415 165.904 198.415 174.289C198.415 182.664 191.62 189.459 183.266 189.459C174.934 189.459 168.171 182.664 168.171 174.289Z" fill="#00BAFC"/>
</g>
<defs>
<clipPath id="clip0_38_57">
<rect width="256" height="250.368" fill="white" transform="translate(0 3)"/>
</clipPath>
</defs>
</svg>
