<svg version="1.1" id="Layer_1" xmlns="http://www.w3.org/2000/svg" xmlns:xlink="http://www.w3.org/1999/xlink" x="0px" y="0px" viewBox="0 0 184.8 102" style="enable-background:new 0 0 184.8 102;" xml:space="preserve">
 <style type="text/css">
  .st0{fill:url(#SVGID_1_);}
	.st1{fill:url(#SVGID_2_);}
	.st2{fill:#231F20;}
 </style>
 <linearGradient id="SVGID_1_" gradientUnits="userSpaceOnUse" x1="68.7171" y1="63.7833" x2="125.0071" y2="94.8933" gradientTransform="matrix(1 0 0 -1 0 103)">
  <stop offset="9.000000e-02" style="stop-color:#966B29">
  </stop>
  <stop offset="0.22" style="stop-color:#EEB01E">
  </stop>
  <stop offset="0.36" style="stop-color:#6E3818">
  </stop>
  <stop offset="0.55" style="stop-color:#FFC708">
  </stop>
  <stop offset="0.91" style="stop-color:#643212">
  </stop>
 </linearGradient>
 <path class="st0" d="M81.9,27.1c0.8-0.7,0.6-1.8,1.2-2.6c0.5-0.5,0.8-1.3,0.7-2c0.1-0.6,0.7-1,0.7-1.7c0.1-0.9,0.4-1.7,0.9-2.4
	c-0.1-0.4,0-0.8,0.3-1.2l0.4-0.4c0,0.2-0.2,0.6,0,0.8c0.1,0,0.1,0,0.2-0.1c0.1-0.5,0.3-0.9,0.6-1.3c0,0.2,0,0.5,0.2,0.6
	c0.1,0.2,0.3,0.2,0.5,0.2c0.1-0.2-0.2-0.2-0.2-0.4c-0.1-0.3-0.1-0.6,0.1-0.9c0.1-0.2,0.3,0.1,0.4-0.1c0-0.5,0.2-1,0.5-1.3l0,0
	c0.2,0.4,0.5,0.8,0.9,1c0.1-0.1,0.1-0.3,0.3-0.2c0.8,0.5,1.6-0.1,2.4-0.2c0.6,0,1.2,0,1.8,0.2c1,0.2,1.9,0.7,2.8,1.3
	c0.9,0.6,1.8,1.3,2.5,2.2c0.8,1.1,0.4,1.6,0.9,2.4l0.4,0.6c0.3,1.1,0,2.3-0.8,3.1l0.5-0.3c0.1,0.6,0,1.2-0.2,1.8
	c0.2,0,0.3-0.1,0.4-0.1l0,0c-0.5,0.5,0.1,1.4-0.7,1.7c-0.2,0-0.4,0-0.5-0.1c-0.6-0.9,0.5-1.9-0.3-2.7c-0.2,0.2-0.1,0.4-0.2,0.6
	s-0.1,0.3-0.3,0.4c-0.1,0-0.1,0-0.1-0.1c0.3-0.9,0.2-2-0.4-2.8c-0.1-0.2,0-0.4-0.2-0.6c-0.4,0.4-0.6,1-0.5,1.6c0,0-0.1,0-0.2,0
	c0-0.7-0.3-1.4-0.8-1.9c-0.4-0.4-1.1-0.7-1.1-1.3c0-0.1,0.1-0.3,0-0.4c-0.2,0.1-0.3,0.3-0.4,0.5c-0.1,0.4-0.1,0.8,0,1.1
	c-0.5-0.5-0.7-1.1-0.6-1.8c-0.1-0.6-0.5-1.1-1-1.5c-0.2,0-0.1,0.4-0.2,0.5c-0.2,0.5-0.1,1.1,0.2,1.5c0,0,0,0.1,0,0.1l0,0
	c-0.4-0.5-0.6-1.1-0.5-1.8c-0.2-0.2-0.4-0.4-0.7-0.5c0-0.9-0.6-1.8-1.4-2.2c-0.2-0.2-0.4-0.5-0.5-0.8c-0.1,0-0.2,0.1-0.2,0.2
	s-0.1,0.4-0.2,0.5c-0.2-0.7-1-0.8-1.3-1.4c-0.2,0-0.1,0.2-0.2,0.2c-0.1,0.5,0,1.1,0.3,1.6c-0.1,0-0.1,0-0.2,0
	c-0.1-0.1-0.1-0.2-0.2-0.2c-0.1,0.5,0.2,1,0.6,1.3c0.6,0.4,1.4,0.4,1.7,1.2h-0.1c-0.4-0.4-0.9-0.7-1.4-0.7l-0.1,0
	c0.4,0.4,0.3,1,0.7,1.4c0.7,0.5,1.5,0.7,2.3,0.6c0,0,0,0.1,0,0.1L92,20.6c-0.3,0.1-0.7-0.1-1,0c0.5,0.8,1.3,1.2,2.2,1.1
	c0.2-0.1,0.4-0.1,0.6,0c0.1,0.1-0.1,0.2-0.2,0.1c-0.6-0.1-1.2,0.1-1.6,0.5c0,0,0,0.1,0.1,0.1c0.7-0.1,1.3,0.2,1.8,0.6
	c0.7,0.4,1.6-0.1,2.2,0.6c-0.5-0.2-1-0.2-1.4-0.1c0,0,0,0,0,0.1c0.4,0.5,0.6,1.2,1.3,1.4s1.7,0.1,2,0.9v0c-0.2,0-0.2-0.2-0.3-0.3
	c-0.3-0.3-0.7-0.4-1.1-0.4v0.1c0.5,0.2,0.9,0.7,0.9,1.3c0,0.6,0.4,1.2,0.9,1.4c0.2,0.1,0.5,0.2,0.8,0.1c0-0.1-0.1-0.2-0.2-0.2
	c0.4,0.1,0.8,0.1,1.1-0.2c-0.1,0.3-0.3,0.6-0.6,0.6c0.1,0.5-0.1,0.9-0.4,1.3L99,29.9c0,0-0.1,0.1-0.1,0.1l0,0h-0.1c-0.1,0,0,0-0.1,0
	c-0.3,0.3-0.9,0.1-0.9,0.6c0.1,0.1,0.1,0.1,0.2,0.1c-0.1,0.4-0.4,0.4-0.7,0.7c-0.2,0.2-0.3,0.4-0.3,0.6c-0.4,2,1.4,2.6,1.6,4.4
	c0,0.2-0.1,0.4-0.3,0.4c-0.5,0-0.9,0-1.4,0c-2.1,0-4.2,0.7-6,1.8c-1,0.6-2,0.9-3.2,1c-0.1,0-0.2-0.1-0.3-0.2
	c0.3-0.7,0.4-1.5,0.3-2.3c-0.2-0.8-0.3-1.5-0.3-2.3c-0.1-0.5-0.5-1-1-1.2c-0.7-0.2-1.4-0.3-2.2-0.4c-0.2-0.1-0.6-0.3-0.7-0.5
	c-0.1-0.5-0.1-1,0.1-1.5c0-0.2-0.3-0.3-0.3-0.5s0.4-0.5,0.2-0.8l-0.5-0.5c0-0.3,0.3-0.5,0.1-0.8c-0.4-0.4-1.2,0-1.7-0.3
	C81.5,27.7,81.7,27.4,81.9,27.1z">
 </path>
 <linearGradient id="SVGID_2_" gradientUnits="userSpaceOnUse" x1="69.2987" y1="62.7423" x2="125.5887" y2="93.8523" gradientTransform="matrix(1 0 0 -1 0 103)">
  <stop offset="9.000000e-02" style="stop-color:#966B29">
  </stop>
  <stop offset="0.22" style="stop-color:#EEB01E">
  </stop>
  <stop offset="0.36" style="stop-color:#6E3818">
  </stop>
  <stop offset="0.55" style="stop-color:#FFC708">
  </stop>
  <stop offset="0.91" style="stop-color:#643212">
  </stop>
 </linearGradient>
 <path class="st1" d="M117.2,25.5c-0.3-1.7-0.9-3.3-1.3-4.9c-0.6-2.1-1.5-4.1-2.8-5.8c-0.9-1.3-1.8-2.5-2.8-3.7c-0.8-1-1.6-2-2.5-2.9
	c-1.2-1.2-2.5-2.2-3.8-3.3c-1.3-1.3-2.9-2.3-4.6-2.9c-1.7-0.6-3.5-1-5.3-1.5c-2.5-0.6-5.1-0.4-7.5,0.4C84,1.7,81.6,3.1,79.7,5
	c-1.3,1.2-2.4,2.6-3.6,3.8c-1.3,1.4-2.3,3-3,4.7c-0.9,2-1.5,4.1-2.2,6.2c-0.6,1.8-1.2,3.6-2,5.4c-0.8,1.6-1.2,3.4-1.3,5.1
	c0,0.8,0.1,1.6,0.3,2.4c0.4,1.6,0.8,3.2,1.3,4.8c0.5,1.7,1.5,3.2,2.8,4.3c1,0.7,1.9,1.5,2.7,2.4c1.7,2,3.7,3.7,6,5
	c3.2,1.9,6.8,3.2,10.4,3.8c2.9,0.4,5.9,0.3,8.7-0.5c1.6-0.5,3.2-1.1,4.8-1.8c2.3-0.9,4.4-2.3,6.2-4.1c1.2-1.2,2.3-2.6,3.1-4.1
	c1-1.7,1.8-3.5,2.4-5.3c0.4-1.5,0.6-3,0.9-4.6C117.7,30.3,117.7,27.8,117.2,25.5z M80.4,42.8c-1.4-0.7-2.8-1.5-4.1-2.4
	c-0.5-0.3-0.9-0.7-1.3-0.9c-1-0.5-1.7-1.4-2.1-2.4c-0.8-2.2-1.3-4.6-1.2-6.9c0-3.3,0.8-6.5,2.3-9.5c1.6-3.3,3.9-6.2,6.7-8.7
	c1.2-1,2.6-1.7,4.2-2c1.3-0.3,2.5-0.4,3.8-0.5c1.4-0.1,2.8-0.1,4.2,0.1c1,0.2,2.1,0.5,3,1c2.4,1.1,4.8,2.2,7.2,3.3
	c1.9,0.8,3.5,2.1,4.8,3.6c0.6,0.7,1.1,1.4,1.6,2.2c1.2,1.9,1,4.1,0.8,6.1c-0.6,5.1-3,9.8-6.9,13.1c-2,1.8-4.3,3.2-6.9,4
	c-1.1,0.5-2.3,0.8-3.5,1.1c-1.9,0.2-3.7,0.3-5.6,0.3C85,44.4,82.6,43.8,80.4,42.8z M113.9,34.6c-0.5,2.6-1.5,5.1-3,7.3
	c-1.4,1.9-3.2,3.4-5.2,4.6c-2,1.1-4.2,2-6.4,2.5c-2.6,0.7-5.3,0.9-8,0.5c-1.9-0.3-3.9-0.6-5.8-1c-0.6-0.1-1.1-0.3-1.7-0.5v-0.2
	c0.6,0.1,1.3,0.1,1.9,0.2c2.9,0.4,5.9,0.3,8.7-0.3c7-1.7,13-6.3,16.3-12.7c1.3-2.4,2.1-5,2.4-7.7c0.3-2.1,0.1-4.2-0.5-6.1
	c-0.5-1.5-0.9-3.1-1.5-4.6c-0.3-0.7-0.7-1.3-1.2-1.7c-1.4-1.4-3-2.6-4.8-3.5c-0.8-0.4-1.7-0.6-2.6-0.9l-5.6-1.9
	c-3.2-1.1-6.7-1.3-10-0.5c-1.4,0.3-2.7,0.8-4,1.3c-1.7,0.8-3.2,2-4.4,3.4c-1.6,1.6-3,3.4-4.1,5.3c-0.9,1.6-1.6,3.2-2.3,4.8
	c-0.4,0.9-0.7,1.9-0.9,2.9c-0.5,1.8-0.6,3.7-0.5,5.6c0.1,1.1,0,2.1,0,3.2c-1.1-1.7-1.7-3.7-1.4-5.7c0.2-1.6,0.7-3.2,1.3-4.7
	c0.6-1.8,1.2-3.7,1.8-5.5c1-3.5,2.8-6.8,5.1-9.6c1.4-1.7,3-3.2,4.7-4.5c2.8-2.3,6.5-3.2,10.1-2.5c2.4,0.3,4.7,1.1,6.8,2.2
	c2,1.2,4,2.5,5.8,3.8c2.9,2.1,4.6,5.1,6.6,7.9c1.4,2,2.1,4.4,2.2,6.9c0.1,1.6,0.4,3.2,0.6,4.8C114.5,29.9,114.4,32.3,113.9,34.6z">
 </path>
 <polygon class="st2" points="75.2,80.4 74.6,80.2 72.3,85.1 63.2,85.1 63.2,65.7 72.3,65.7 74.6,70.5 75.2,70.3 75.2,64.6 57,64.6 
	57,65.7 59.8,65.7 59.8,85.1 57,85.1 57,86.1 75.2,86.1 ">
 </polygon>
 <polygon class="st2" points="69.2,80 69.9,79.8 69.9,71.4 69.2,71.2 67,75.6 ">
 </polygon>
 <path class="st2" d="M39.5,64.5l-0.2,0.1l0,0L39.5,64.5L39.3,64l-0.6,0.5l-1.5,1l-7.8,19.5h-2.8v1.1h6.7v-1.1h-2.7l2.6-6.6h7.8
	l2.5,6.6H41v1.1h9v-1.1h-2.7L39.5,64.5z M33.7,77.4l3.6-9l3.4,9H33.7z">
 </path>
 <path class="st2" d="M120.2,86.1h9v-1.1h-2.7l-7.8-20.6l-0.2,0.1l0,0l0.2-0.1l-0.2-0.5l-0.6,0.5l-1.5,1l-7.8,19.5h-2.8v1.1h6.7v-1.1
	h-2.8l2.7-6.6h7.8l2.5,6.6h-2.6V86.1z M112.8,77.4l3.6-9l3.4,9H112.8z">
 </path>
 <path class="st2" d="M147.9,76.4l-1.5-0.4c1.4-0.3,2.7-0.8,3.9-1.5c2-1.2,3.1-2.7,3.1-4.3c0-3.9-3.9-6-7.5-6h-10.4v1.1h2.8v19.8
	h-2.8v1.1h9v-1.1h-2.8v-8.8h2.3l7.3,9.9h5.1v-1.1h-1.9L147.9,76.4z M141.7,65.3h2.8c4.6,0.2,5.1,3.9,5.1,5.4c0,3.8-3.7,4.4-7.9,4.4
	V65.3z">
 </path>
 <path class="st2" d="M97.2,75c0,0-2.5-1.4-3.3-1.9l-1-0.6c-1-0.5-2-1.1-3-1.7c-0.7-0.5-1.1-1.2-1.1-2c-0.1-0.8,0.2-1.6,0.7-2.2
	c1-0.9,2.3-1.3,3.7-1.3c1.8,0,3.5,0.9,4.6,2.4l1.3,3.3h0.8v-5.3l-0.1-0.1c-0.4-0.4-1-0.8-1.6-1c-1.8-0.7-3.8-0.8-5.7-0.6
	c-1.7,0.3-3.3,0.9-4.6,1.9c-1.2,0.8-1.9,2.1-2,3.6c-0.1,0.8,0.1,1.7,0.5,2.4c0.4,0.8,1,1.5,1.8,1.9c0.8,0.5,2,1.2,3.9,2.1l0.5,0.3
	c1.2,0.6,2,1,2.6,1.4c0.6,0.4,1.2,0.8,1.6,1.4c0.4,0.5,0.7,1.2,0.8,1.9c0.1,1-0.2,2-1,2.7c-1,0.8-2.2,1.2-3.5,1.2
	c-2-0.1-3.9-1-5.3-2.5l-1.3-3.3h-0.9v5.3l0.1,0.1c0.4,0.4,1,0.7,1.5,0.9c1.4,0.6,2.8,1,4.3,1c0.6,0,1.1-0.1,1.7-0.2
	c1.8-0.3,3.5-1.1,5-2.2c1.5-1.1,2.4-2.8,2.3-4.7C100.3,77.5,99,75.8,97.2,75z">
 </path>
 <path class="st2" d="M178.4,79.5c-0.2-2-1.4-3.7-3.3-4.5c0,0-2.5-1.4-3.3-1.9l-1-0.6c-1-0.5-2-1.1-3-1.7c-0.7-0.5-1.1-1.2-1.1-2
	c-0.1-0.8,0.2-1.6,0.7-2.2c1-0.9,2.3-1.3,3.6-1.3c1.8,0,3.5,0.9,4.6,2.4l1.4,3.3h0.8v-5.3l-0.1-0.1c-0.4-0.4-1-0.8-1.6-1
	c-1.8-0.7-3.8-0.8-5.7-0.6c-1.7,0.3-3.3,0.9-4.6,1.9c-1.2,0.8-1.9,2.1-2,3.6c-0.1,0.8,0.1,1.7,0.5,2.4c0.4,0.8,1,1.5,1.7,1.9
	c0.8,0.5,2,1.2,3.9,2.1l0.6,0.3c1.2,0.6,2,1,2.6,1.4c0.6,0.4,1.2,0.8,1.6,1.4c0.4,0.5,0.7,1.2,0.8,1.9c0.1,1-0.2,2-1,2.7
	c-1,0.8-2.3,1.3-3.5,1.2c-2-0.1-3.9-1-5.3-2.5l-1.3-3.3h-0.9v5.3l0.1,0.1c0.4,0.4,1,0.7,1.5,0.9c1.4,0.6,2.8,1,4.3,1
	c0.6,0,1.1-0.1,1.6-0.2c1.8-0.3,3.5-1.1,5-2.2C177.5,83.1,178.4,81.3,178.4,79.5z">
 </path>
 <path class="st2" d="M19.9,84.4v-5.3L19.3,79l-2.5,5c-1.3,0.9-2.8,1.4-4.4,1.4c-5.9,0-8.6-5.1-8.6-10.1c0-6.4,3.1-10.1,8.6-10.1
	c1.7,0,3.3,0.6,4.6,1.6l2.2,4.5l0.7-0.2v-5.2l-0.2-0.1c-2.1-1.1-4.4-1.7-6.8-1.7C5.4,64.1,0,68.8,0,75.3c0,7.2,4.6,11.2,12.9,11.2
	c2.4-0.1,4.8-0.7,6.9-2L19.9,84.4z">
 </path>
 <polygon class="st2" points="2.3,98.8 6.2,98.8 6.2,97.7 2.3,97.7 2.3,95.7 6.6,95.7 6.6,94.5 1.1,94.5 1.1,102 6.7,102 6.7,100.9 
	2.3,100.9 ">
 </polygon>
 <polygon class="st2" points="20.4,99.8 16.3,94.5 15.2,94.5 15.2,102 16.4,102 16.4,96.6 20.7,102 21.6,102 21.6,94.5 20.4,94.5 ">
 </polygon>
 <polygon class="st2" points="30,95.7 32.4,95.7 32.4,102 33.6,102 33.6,95.7 36,95.7 36,94.5 30,94.5 ">
 </polygon>
 <polygon class="st2" points="45.7,98.8 49.5,98.8 49.5,97.7 45.7,97.7 45.7,95.7 50,95.7 50,94.5 44.5,94.5 44.5,102 50,102 
	50,100.9 45.7,100.9 ">
 </polygon>
 <path class="st2" d="M64.6,96.8c0-0.6-0.2-1.1-0.6-1.5c-0.6-0.5-1.4-0.8-2.2-0.8h-3.3v7.5h1.2v-2.8h1.7l2,2.8h1.1l0.2-0.3l-2-2.6
	C63.8,98.8,64.6,97.9,64.6,96.8z M63.3,96.8c0,0.8-0.6,1.3-1.6,1.3h-2v-2.4h2C62.8,95.7,63.3,96.1,63.3,96.8L63.3,96.8z">
 </path>
 <polygon class="st2" points="72.7,95.7 75,95.7 75,102 76.2,102 76.2,95.7 78.6,95.7 78.6,94.5 72.7,94.5 ">
 </polygon>
 <path class="st2" d="M88.8,94.5l-3.4,7.5h1.3l0.8-1.9h3.6l0.8,1.9h1.3l-3.4-7.5H88.8z M90.6,99H88l1.3-2.9L90.6,99z">
 </path>
 <rect x="100.8" y="94.5" class="st2" width="1.2" height="7.5">
 </rect>
 <polygon class="st2" points="115.5,99.8 111.3,94.5 110.3,94.5 110.3,102 111.5,102 111.5,96.6 115.7,102 116.7,102 116.7,94.5 
	115.5,94.5 ">
 </polygon>
 <polygon class="st2" points="129.8,98.2 127.3,94.5 126.2,94.5 126.2,102 127.4,102 127.4,96.7 129.6,100.1 129.9,100.1 132.1,96.7 
	132.1,102 133.4,102 133.4,94.5 132.2,94.5 ">
 </polygon>
 <polygon class="st2" points="143.7,98.8 147.5,98.8 147.5,97.7 143.7,97.7 143.7,95.7 148,95.7 148,94.5 142.5,94.5 142.5,102 
	148,102 148,100.9 143.7,100.9 ">
 </polygon>
 <polygon class="st2" points="161.8,99.8 157.6,94.5 156.6,94.5 156.6,102 157.8,102 157.8,96.6 162,102 163,102 163,94.5 
	161.8,94.5 ">
 </polygon>
 <polygon class="st2" points="171.4,95.7 173.8,95.7 173.8,102 175,102 175,95.7 177.4,95.7 177.4,94.5 171.4,94.5 ">
 </polygon>
 <path class="st2" d="M183.1,98.4c0.3,0,0.6,0.1,0.9,0.2c0.3,0.1,0.5,0.4,0.7,0.7c0.2,0.3,0.2,0.6,0.2,0.9c0,0.3-0.1,0.6-0.2,0.9
	c-0.2,0.3-0.4,0.5-0.7,0.7c-0.5,0.3-1.2,0.3-1.8,0c-0.3-0.1-0.5-0.4-0.6-0.7c-0.2-0.3-0.2-0.6-0.2-0.9c0-0.3,0.1-0.6,0.2-0.9
	c0.2-0.3,0.4-0.5,0.7-0.7C182.4,98.5,182.8,98.4,183.1,98.4z M183.1,98.8c-0.2,0-0.5,0.1-0.7,0.2c-0.2,0.1-0.4,0.3-0.5,0.5
	c-0.1,0.2-0.2,0.5-0.2,0.7c0,0.3,0.1,0.5,0.2,0.7c0.1,0.2,0.3,0.4,0.5,0.5c0.2,0.1,0.5,0.2,0.7,0.2c0.5,0,1-0.3,1.2-0.7
	c0.1-0.2,0.2-0.5,0.2-0.7c0-0.3-0.1-0.5-0.2-0.7c-0.1-0.2-0.3-0.4-0.5-0.5C183.5,98.8,183.3,98.8,183.1,98.8z M182.2,101.2v-1.9h1
	c0.1,0,0.2,0,0.3,0.1c0.1,0,0.1,0.1,0.2,0.2c0.1,0.2,0.1,0.4-0.1,0.6c-0.1,0.1-0.2,0.2-0.4,0.2c0,0,0.1,0,0.1,0.1
	c0,0,0.1,0.1,0.1,0.2c0.1,0.1,0.1,0.1,0.1,0.2l0.2,0.4h-0.5l-0.2-0.3c-0.1-0.1-0.1-0.3-0.3-0.4c-0.1-0.1-0.2-0.1-0.3-0.1h-0.1v0.8
	L182.2,101.2z M182.6,100.1h0.1c0.1,0,0.3,0,0.4,0c0.1,0,0.1,0,0.1-0.1c0,0,0-0.1,0-0.2c0,0,0-0.1,0-0.1c0,0-0.1-0.1-0.1-0.1
	c-0.1,0-0.3,0-0.4,0h-0.1V100.1z">
 </path>
</svg>