<?xml version="1.0" encoding="utf-8"?>
<!-- Generator: Adobe Illustrator 22.1.0, SVG Export Plug-In . SVG Version: 6.00 Build 0)  -->
<svg version="1.1" id="Layer_1" xmlns="http://www.w3.org/2000/svg" xmlns:xlink="http://www.w3.org/1999/xlink" x="0px" y="0px"
	 viewBox="0 0 83.8 44.2" style="enable-background:new 0 0 83.8 44.2;" xml:space="preserve">
<style type="text/css">
	.st0{fill:#006298;}
</style>
<g id="clipper_logo" transform="translate(-94.453 -83.393)">
	<path id="Path_1" class="st0" d="M136.8,106.2c-0.9,1.9-2.7,3.1-4.8,3.1c-3,0-5.4-2.3-5.4-5.3c0-3,2.3-5.4,5.3-5.4
		c2.1,0,4,1.2,4.9,3.1h-2.2c-0.7-0.9-1.7-1.4-2.8-1.4c-1.9,0.1-3.4,1.7-3.4,3.6c0,1.9,1.5,3.5,3.4,3.6c1,0,2-0.5,2.6-1.3
		C134.4,106.2,136.8,106.2,136.8,106.2z"/>
	<path id="Path_2" class="st0" d="M138.3,98.8h1.9v8.5h3.1v1.8h-5V98.8z"/>
	<path id="Path_3" class="st0" d="M144.8,98.8h1.9v10.3h-1.9V98.8z"/>
	<path id="Path_4" class="st0" d="M148.2,98.8h2.6c1.1-0.1,2.1,0.2,3,0.8c1.3,1.3,1.3,3.5,0,4.8c0,0,0,0,0,0c-0.9,0.6-1.9,0.9-3,0.8
		h-0.7v3.9h-1.9V98.8z M150.1,103.4h0.6c0.8,0,2.2-0.1,2.2-1.4s-1.3-1.4-2.1-1.4h-0.7V103.4z"/>
	<path id="Path_5" class="st0" d="M156.3,98.8h2.6c1.1-0.1,2.1,0.2,3,0.8c1.3,1.3,1.3,3.5,0,4.8c0,0,0,0,0,0c-0.9,0.6-1.9,0.9-3,0.8
		h-0.7v3.9h-1.9V98.8z M158.2,103.4h0.6c0.8,0,2.2-0.1,2.2-1.4s-1.3-1.4-2.1-1.4h-0.7V103.4z"/>
	<path id="Path_6" class="st0" d="M164.3,98.8h5.5v1.8h-3.6v2.5h3.5v1.8h-3.5v2.4h3.6v1.8h-5.5V98.8z"/>
	<path id="Path_7" class="st0" d="M171.3,98.8h3.2c0.9-0.1,1.8,0.2,2.5,0.7c0.8,0.6,1.2,1.5,1.2,2.5c0,0.9-0.4,1.8-1,2.5
		c-0.5,0.4-1.1,0.7-1.7,0.8l2.8,3.8H176l-2.7-3.9l0,0v3.9h-1.9V98.8H171.3z M173.3,103.7h1.2c1.6,0,1.8-1,1.8-1.6s-0.3-1.6-1.8-1.6
		h-1.2V103.7z"/>
	<path id="Path_8" class="st0" d="M99.6,86.6c-0.1-0.2,0.1-0.4,0.1-0.4c0.2-0.3,1.5-1.8,1.8-2.2c0.1-0.1,0.2-0.2,0.3-0.2
		c0.2,0,0.3,0.1,0.3,0.2c0.1,0.1,1.8,2.2,1.8,2.2s0.2,0.2,0.1,0.4c-0.1,0.2-0.4,0.2-0.4,0.2H100C100,86.8,99.7,86.8,99.6,86.6z"/>
	<path id="Path_9" class="st0" d="M98.5,91.6c-0.1-0.2,0.1-0.5,0.2-0.6c0.4-0.4,2.3-2.8,2.7-3.3c0.2-0.2,0.3-0.3,0.5-0.3
		c0.2,0,0.4,0.1,0.5,0.3c0.1,0.1,2.7,3.3,2.7,3.3s0.3,0.3,0.2,0.6c-0.1,0.2-0.4,0.3-0.6,0.3h-5.5C99.1,91.9,98.6,91.9,98.5,91.6z"/>
	<path id="Path_10" class="st0" d="M97.2,98.3c-0.2-0.3,0.2-0.7,0.2-0.8c0.5-0.6,3.2-3.8,3.8-4.5c0.1-0.3,0.4-0.4,0.7-0.4
		c0.4,0,0.5,0.3,0.6,0.4c0.1,0.1,3.8,4.5,3.8,4.5s0.4,0.5,0.2,0.8c-0.2,0.4-0.8,0.4-0.8,0.4H98C98,98.7,97.4,98.7,97.2,98.3z"/>
	<path id="Path_11" class="st0" d="M94.5,100.3c-0.2,0.5,0.3,1.1,0.4,1.3c0.8,1,5,6,5.9,7.1c0.2,0.4,0.6,0.6,1,0.6
		c0.4,0,0.8-0.2,1-0.6c0.2-0.2,5.9-7.1,5.9-7.1s0.6-0.7,0.4-1.3c-0.3-0.7-1.3-0.7-1.3-0.7h-12C95.8,99.6,94.8,99.6,94.5,100.3z"/>
	<path id="Path_12" class="st0" d="M110,88.2c-0.1-0.3,0-0.5,0.2-0.7c0.4-0.5,2.7-3.2,3.1-3.8c0.1-0.2,0.4-0.3,0.6-0.3
		c0.2,0,0.4,0.1,0.5,0.3c0.1,0.1,3.1,3.8,3.1,3.8s0.3,0.4,0.2,0.7c-0.1,0.2-0.4,0.4-0.7,0.3h-6.4C110.7,88.6,110.2,88.6,110,88.2z"
		/>
	<path id="Path_13" class="st0" d="M108.1,96.9c-0.2-0.4,0.2-0.9,0.3-1c0.6-0.8,4-4.8,4.7-5.7c0.3-0.3,0.4-0.5,0.8-0.5
		c0.3,0,0.7,0.2,0.8,0.5c0.1,0.2,4.7,5.7,4.7,5.7s0.5,0.6,0.3,1c-0.2,0.3-0.6,0.5-1,0.5h-9.6C109.1,97.4,108.3,97.5,108.1,96.9z"/>
	<path id="Path_14" class="st0" d="M105.8,108.5c-0.3-0.6,0.3-1.3,0.4-1.4c0.9-1.1,5.6-6.7,6.6-7.9c0.4-0.5,0.6-0.7,1.2-0.7
		c0.5,0,0.9,0.3,1.1,0.7c0.2,0.2,6.5,7.9,6.5,7.9s0.7,0.8,0.4,1.4c-0.3,0.4-0.8,0.7-1.4,0.7h-13.3
		C106.7,109.3,106.1,109,105.8,108.5z"/>
	<path id="Path_15" class="st0" d="M101.2,112c-0.2,0.8,0,1.6,0.6,2.2c1.4,1.7,8.7,10.5,10.3,12.3c0.4,0.6,1.1,1,1.8,1
		c0.7,0,1.3-0.4,1.7-1c0.3-0.3,10.3-12.3,10.3-12.3s1.1-1.3,0.6-2.2c-0.6-1.2-2.3-1.1-2.3-1.1h-20.9
		C102.4,110.8,101.6,111.2,101.2,112z"/>
	<path id="Path_16" class="st0" d="M121.6,125.7c0,1-0.8,1.8-1.8,1.8c-1,0-1.8-0.8-1.8-1.8c0-1,0.8-1.8,1.8-1.8l0,0
		c0.9-0.1,1.8,0.6,1.8,1.6C121.7,125.6,121.7,125.7,121.6,125.7z M118.4,125.7c0,0.8,0.6,1.4,1.4,1.4c0.8,0,1.4-0.6,1.4-1.4
		s-0.6-1.4-1.4-1.4C119,124.3,118.4,124.9,118.4,125.7C118.4,125.7,118.4,125.7,118.4,125.7z M119.8,124.7c0.2,0,0.8,0,0.8,0.6
		c0,0.2-0.2,0.4-0.4,0.4l0,0c0.2,0,0.4,0.2,0.4,0.6v0.4h-0.4v-0.4c0-0.4,0-0.4-0.4-0.4h-0.4v0.8H119v-2.1L119.8,124.7L119.8,124.7z
		 M119.4,125.6h0.4c0.2,0,0.4,0,0.4-0.4c0-0.2-0.2-0.2-0.4-0.2h-0.4V125.6z"/>
</g>
</svg>
