<?xml version="1.0" encoding="utf-8"?>
<!-- Generator: Adobe Illustrator 26.0.3, SVG Export Plug-In . SVG Version: 6.00 Build 0)  -->
<svg version="1.0" id="katman_1" xmlns="http://www.w3.org/2000/svg" xmlns:xlink="http://www.w3.org/1999/xlink" x="0px" y="0px"
	 viewBox="0 0 600 450" style="enable-background:new 0 0 600 450;" xml:space="preserve">
<style type="text/css">
	.st0{clip-path:url(#SVGID_00000128466174371774661130000016329869542987851927_);}
	.st1{fill:#095EA9;}
	.st2{clip-path:url(#SVGID_00000091726292005130601860000014925095003933332667_);}
</style>
<g>
	<defs>
		<rect id="SVGID_1_" x="40.1" y="208.7" width="68.8" height="33.3"/>
	</defs>
	<clipPath id="SVGID_00000005960742491879820750000012825681692393884597_">
		<use xlink:href="#SVGID_1_"  style="overflow:visible;"/>
	</clipPath>
	<g style="clip-path:url(#SVGID_00000005960742491879820750000012825681692393884597_);">
		<path class="st1" d="M103,209.4l-8.2,23.7c-0.7,1.9-2.4,3.1-4.4,3.1H58.6c-2,0-3.8-1.3-4.4-3.1L46,209.4c-0.1-0.4-0.5-0.7-1-0.7
			h-3.8c-0.7,0-1.2,0.7-1,1.4l10.5,30.3c0.3,0.9,1.2,1.6,2.2,1.6h43.3c1,0,1.9-0.6,2.2-1.6l10.5-30.3c0.3-0.7-0.3-1.4-1-1.4H104
			C103.6,208.7,103.2,209,103,209.4z"/>
		<path class="st1" d="M59.9,233.5h29.2c1.6,0,2.9-1,3.5-2.5l7.2-20.9c0.3-0.7-0.3-1.4-1-1.4H95c-0.5,0-0.9,0.3-1,0.7l-5.3,15.2
			c-0.7,1.9-2.4,3.1-4.4,3.1H64.7c-2,0-3.8-1.3-4.4-3.1L55,209.4c-0.1-0.4-0.5-0.7-1-0.7h-3.8c-0.7,0-1.2,0.7-1,1.4l7.2,20.9
			C56.9,232.5,58.3,233.5,59.9,233.5z"/>
		<path class="st1" d="M66,224.9h17c1.6,0,2.9-1,3.5-2.5l4.3-12.3c0.3-0.7-0.3-1.4-1-1.4h-3.8c-0.5,0-0.9,0.3-1,0.7l-2.4,6.8
			c-0.6,1.7-2.2,2.9-4.1,2.9h-7.9c-1.8,0-3.5-1.2-4.1-2.9l-2.4-6.8c-0.1-0.4-0.5-0.7-1-0.7h-3.8c-0.7,0-1.2,0.7-1,1.4l4.3,12.3
			C63,223.9,64.4,224.9,66,224.9z"/>
	</g>
</g>
<g>
	<defs>
		<rect id="SVGID_00000160869535202272275660000004680620358181722508_" x="126.3" y="207.5" width="434.3" height="35.8"/>
	</defs>
	<clipPath id="SVGID_00000082339168105648320050000004133911475142332545_">
		<use xlink:href="#SVGID_00000160869535202272275660000004680620358181722508_"  style="overflow:visible;"/>
	</clipPath>
	<g style="clip-path:url(#SVGID_00000082339168105648320050000004133911475142332545_);">
		<path class="st1" d="M352.3,217.6h-7.9v24.9h7.9V217.6z"/>
		<path class="st1" d="M341,225.7c0-6.8-5.5-8.6-11.3-8.6c-2.8,0-5.5,1-7.7,2.2c-2.1,1.3-3.6,3.3-3.8,6.5h7.4c0.4-2.1,1.8-3,3.9-3
			c1.6,0,3.8,0.7,3.8,2.5c0,1.5-0.8,1.4-2.1,1.6c-5.5,1.1-14.1,1.1-14.1,9c0,5,3.6,7.3,8.3,7.3c2.9,0,5.9-0.8,8-3
			c0.1,0.8,0.2,1.6,0.5,2.3h8c-0.9-1.9-0.9-4.2-0.9-6.2L341,225.7L341,225.7z M328.5,237.5c-1.8,0-3.3-0.3-3.3-2.2
			c0-1.9,1.5-2.4,3.3-2.8c1.7-0.5,3.3-0.9,4.4-1.6C333,235.9,332.3,237.5,328.5,237.5z"/>
		<path class="st1" d="M371.1,217.2c-2.9,0-6.2,0.9-7.6,3.3h-0.1v-2.6h-7.7v24.6h7.9v-13.2c0-2.6,1.3-5.2,4.3-5.2
			c4.3,0,3.9,3.4,3.9,6.7v11.7h7.9v-15.5C379.8,223.5,379.2,217.2,371.1,217.2z"/>
		<path class="st1" d="M395.6,216.5c-7.1,0.1-13.1,5.2-13.1,12.6c0,8.1,5.2,14,13.1,14c5.4,0,10.9-3.6,12.3-9.2h-8.1
			c-0.8,1.8-2.3,2.9-4.2,2.9c-2.5,0-4.1-1.7-4.6-4.6h17.4C410,223.1,404.4,216.4,395.6,216.5z M391,227.1c0.5-2.9,1.9-5,4.7-5
			c2.6,0,4.4,2.3,4.7,5H391z"/>
		<path class="st1" d="M352.3,209.2h-7.9v6h7.9V209.2z"/>
		<path class="st1" d="M311,211.9h-7.9v6.4h-4v5.1h4v11.2c0,6.6,1.7,8.5,8.5,8.5c1.4,0,2.9-0.2,4.3-0.2v-5.8c-0.7,0-1.4,0.1-2.1,0.1
			c-1.7,0-2.9-0.4-2.9-2.3v-11.5h4.9v-5.1H311L311,211.9L311,211.9z"/>
		<path class="st1" d="M289.5,217.2c-2.9,0-6.2,0.9-7.6,3.3h-0.1v-2.6h-7.7v24.6h7.9v-13.2c0-2.6,1.3-5.2,4.3-5.2
			c4.3,0,3.9,3.4,3.9,6.7v11.7h7.9v-15.5C298.2,223.5,297.6,217.2,289.5,217.2z"/>
		<path class="st1" d="M192.6,216.5c-7.1,0.1-13.1,5.2-13.1,12.6c0,8.1,5.2,14,13.1,14c5.4,0,10.9-3.6,12.3-9.2h-8.1
			c-0.8,1.8-2.3,2.9-4.2,2.9c-2.5,0-4.1-1.7-4.6-4.6h17.4C207,223.1,201.3,216.4,192.6,216.5z M187.9,227.1c0.5-2.9,1.9-5,4.7-5
			c2.6,0,4.4,2.3,4.7,5H187.9z"/>
		<path class="st1" d="M168.1,216.3c-2.9,0-6.2,1.3-7.4,3.8h-0.1v-10.9h-5.8h-2.7h-25.8v7.5h9.9v25.8h8.7v-25.9h7.2v25.8h8.5v-13.2
			c0-2.6,0.8-6.4,3.8-6.4c4.3,0,3.9,4.6,3.9,7.9v11.7h8.4v-15.5C176.8,223.5,176.1,216.3,168.1,216.3z"/>
		<path class="st1" d="M258.7,216.6c-7.5,0-12.7,5.5-12.7,12.8s5.2,13.9,12.7,13.9c7.5,0,12.8-6.3,12.8-13.5
			C271.4,222.5,266.2,216.6,258.7,216.6z M258.7,236.2c-3.7,0-4.8-3.3-4.8-6.4s1.1-6.3,4.8-6.3c3.7,0,4.9,3.3,4.9,6.3
			S262.4,236.2,258.7,236.2z"/>
		<path class="st1" d="M229.1,235.7c-4.2,0-7.3-4.9-7.3-9.9c0-5,2.1-10.5,7.7-10.5c3.6,0,5.1,1.3,5.6,4.6h8.1
			c-0.3-8-6.3-12.5-13.5-12.5c-10.1,0-16.6,8.2-16.6,17.8c0,9.7,6.5,17.8,16.6,17.8c8.4,0,14-6.9,14-13.6h-8.7
			C234.7,233.4,233.2,235.7,229.1,235.7z"/>
		<path class="st1" d="M492.1,216.6c-7.5,0-12.7,5.5-12.7,12.8s5.2,13.9,12.7,13.9c7.5,0,12.8-6.3,12.8-13.5
			C504.9,222.5,499.6,216.6,492.1,216.6z M492.1,236.2c-3.7,0-4.8-3.3-4.8-6.4s1.1-6.3,4.8-6.3c3.7,0,4.9,3.3,4.9,6.3
			S495.8,236.2,492.1,236.2z"/>
		<path class="st1" d="M536.5,216.5c-7.1,0.1-13.1,5.2-13.1,12.6c0,8.1,5.2,14,13.1,14c5.4,0,10.9-3.6,12.3-9.2h-8.1
			c-0.8,1.8-2.3,2.9-4.2,2.9c-2.5,0-4.1-1.7-4.6-4.6h17.4C550.8,223.1,545.2,216.4,536.5,216.5z M531.8,227.1c0.5-2.9,1.9-5,4.7-5
			c2.6,0,4.4,2.3,4.7,5H531.8z"/>
		<path class="st1" d="M556.8,215.1c0-1.3-0.8-1.7-2.3-1.7h-2.2v5.8h1.2v-2.5h0.7l1.4,2.5h1.2l-1.6-2.5
			C556.2,216.5,556.8,216.1,556.8,215.1z M553.5,215.8v-1.5h1c0.5,0,1.2,0.1,1.2,0.7c0,0.7-0.5,0.8-1.1,0.8H553.5z"/>
		<path class="st1" d="M554.6,210.5c-3.4,0-6,2.5-6,5.8c0,3.3,2.6,5.8,6,5.8s6-2.5,6-5.8C560.6,213,558,210.5,554.6,210.5z
			 M554.6,221.4c-2.5,0-5.2-1.8-5.2-5.1c0-3.3,2.7-5,5.2-5c2.5,0,5.2,1.8,5.2,5C559.9,219.6,557.2,221.4,554.6,221.4z"/>
		<path class="st1" d="M419.2,221.3h-0.1v-3.5h-7.7v24.6h7.9v-12.2c0-2.6,1.4-3.6,4.2-5.3c3.2-0.4,3.3-0.2,3.3-0.2v-7.6
			C423.9,217.2,420.6,218.9,419.2,221.3z"/>
		<path class="st1" d="M515.5,221.3h-0.1v-3.5h-7.7v24.6h7.9v-12.2c0-2.6,1.4-3.6,4.2-5.3c3.2-0.4,3.3-0.2,3.3-0.2v-7.6
			C520.2,217.2,516.9,218.9,515.5,221.3z"/>
		<path class="st1" d="M473.8,211.9h-7.9v6.4h-3.5c-0.6-6.9-6.8-10.5-13.1-10.5c-6.3,0-13.4,3.6-13.4,10.9c0,6.1,5.2,8.8,10,10.2
			c4.8,1.3,9.1,1.3,9.1,4.3c0,2.5-2.3,3.4-4.9,3.4c-3.7,0-6.1-1.3-6.3-5.2h-8.7c0,8.5,6.8,11.9,14.4,11.9c7.3,0,14.2-2.7,14.2-11.1
			c0-6-4.5-8.3-9.3-9.6c-4.8-1.3-10.5-1.8-10.5-4.4c0-2.2,3.2-3.4,5-3.4c2.6,0,5.5,1.5,5.4,4.5h7.5v4.2h4v11.2
			c0,6.6,1.7,8.5,8.5,8.5c1.5,0,2.9-0.2,4.3-0.2v-5.8c-0.7,0-1.4,0.1-2.1,0.1c-1.7,0-2.9-0.4-2.9-2.3v-11.5h4.9v-5.1h-4.9
			L473.8,211.9L473.8,211.9z"/>
	</g>
</g>
</svg>
