<?xml version="1.0" encoding="utf-8"?>
<!-- Generator: Adobe Illustrator 26.0.3, SVG Export Plug-In . SVG Version: 6.00 Build 0)  -->
<svg version="1.0" id="katman_1" xmlns="http://www.w3.org/2000/svg" xmlns:xlink="http://www.w3.org/1999/xlink" x="0px" y="0px"
	 viewBox="0 0 600 450" style="enable-background:new 0 0 600 450;" xml:space="preserve">
<style type="text/css">
	.st0{fill:#05539F;}
	.st1{fill:#FFD422;}
</style>
<path class="st0" d="M516.5,202.6h3.1v3.1h-3.1V202.6z M300.6,228.2c8.8-1.7,19-3.5,27.9-5.1l39.3-31.1v-9H301v11.6h41.5l-42,33
	V228.2z M328.3,226.1c-9.2,1.6-18.4,3.3-27.6,5l-0.1,0l0,6.9H368v-11.9L328.3,226.1z M298.1,228.7l0.1,0V183h-15.1
	c0,9,0,25.2,0,48.6C288.2,230.6,293.1,229.6,298.1,228.7 M283.2,234.4l-0.1,0v3.5h15.1v-6.5C293,232.5,287.9,233.5,283.2,234.4
	 M125.9,210.5c0,25.8,30.4,29,41.9,29c11.6,0,42-3.2,42-29c0-25.8-30.4-28.9-42-28.9C156.3,181.5,125.9,184.7,125.9,210.5
	 M141,210.5c0-15.4,17-18.6,26.8-18.6c9.9,0,26.8,3.2,26.8,18.6c0,15.4-16.9,18.5-26.8,18.5C158,229,141,225.9,141,210.5"/>
<path class="st1" d="M382.1,214.9l46.7-5.7l18.2-2.2c-2.1-23.2-30.7-26.1-41.8-26.1c-11.6,0-41.9,3.1-41.9,28.9
	c0,2.7,0.3,5.2,0.8,7.3L382.1,214.9z M382.1,214.9"/>
<path class="st0" d="M428.9,212.1l-28.7,3.5l-17.7,2.1l-17.7,2.2c6.4,17.2,30.4,19.6,40.4,19.6c11.6,0,41.9-3.2,41.9-29
	c0-0.2,0-0.4,0-0.7L428.9,212.1z M75.8,238H61.5l0-55h14.3v19.7h34.1V183h14.4c0,27.4,0,45.7,0,55h-14.4v-23.4H75.8V238L75.8,238z
	 M261.5,236c1.9-0.4,7.2-1.5,14.8-3.1l-15.6-15.5h1.6c10-0.9,18.5-7,17.6-19c-0.2-2.1-0.6-4.9-2.6-7.7c-5.2-7.9-16.5-7.8-16.5-7.8
	h-5.4c-1,0-2-0.1-3-0.1h-41.3c0,6.1,0,24.4,0,55h14.9v-20.4h16.3c0,0,0,0,18.7,18.6L261.5,236z M226.1,206.8v-13.1l25.8,0
	c14.2-0.2,13.9,4.9,14,5.9c0.3,5.4-3.9,7.2-14,7.2H226.1z M278.6,235.3l-0.4,0.1c-4.3,0.9-8.4,1.7-12.3,2.6h15.4L278.6,235.3z
	 M80.3,253.3H64.9v-7.6h-3.9v19h3.9V256h15.4v8.7h3.9v-19h-3.9V253.3z M512.2,245.7l-8.2,8.3l-8-8.3h-4.8l10.9,11v8h3.9v-8.1
	l11.1-10.9H512.2z M512.2,245.7"/>
<path class="st0" d="M261.1,236.1c-22,4.6-44,9.7-65.9,15.1c-1.9-3.8-6.6-6-13-6c-4.8,0-8.6,1.3-11,3.8c-1.7,1.6-2.6,3.9-2.6,6.3
	c0,0.9,0.1,1.8,0.4,2.7c-10.3,2.7-20.3,5.4-29.5,8.1c-0.3,0.1-1.1,0.3-4,1.1l-0.8,0.2l0.4,0.7c0.2,0.4,0.5,0.9,0.7,1.4l0.2,0.5
	l0.5-0.1l8.7-2.5c8.3-2.3,16.7-4.6,25.1-6.8c2.3,3,6.5,4.7,12,4.7c8.4,0,13.8-3.9,13.8-10c0-0.4,0-0.9-0.1-1.3
	c22.3-5.5,44.6-10.6,67-15.4l0.8-0.1L261.1,236.1z M191.6,252.2c-6.3,1.6-12.6,3.2-18.8,4.8c-0.1-0.6-0.2-1.2-0.2-1.7
	c0-3.5,2.6-7.3,9.8-7.3C186.9,247.9,190.2,249.4,191.6,252.2L191.6,252.2z M192.2,255.2c0,5.4-5.1,7.3-9.8,7.3c-3.8,0-6.7-1-8.4-3
	c6.1-1.6,12.1-3.1,18.2-4.6C192.2,255,192.2,255.1,192.2,255.2L192.2,255.2z M298.8,254.5c1.6-0.8,2.5-2.1,2.5-3.8
	c0-2.3-1.7-5.1-9.9-5.1h-10.8v19h12.2c6.5,0,9.9-1.9,9.9-5.6C302.6,257,301.3,255.4,298.8,254.5 M298.7,259.1c0,2.3-1.7,3-8,3h-6.2
	v-5.8h6.5C296.6,256.2,298.7,257,298.7,259.1 M297.4,250.8c0,0.8,0,2.8-6.7,2.8h-6.1v-5.2h5.5C296.1,248.4,297.4,249.3,297.4,250.8
	 M405.8,254.5c1.6-0.8,2.5-2.1,2.5-3.8c0-2.3-1.7-5.1-9.9-5.1h-10.8v19h12.2c6.5,0,9.9-1.9,9.9-5.6
	C409.6,257,408.3,255.4,405.8,254.5L405.8,254.5z M391.5,248.4h5.5c6.1,0,7.3,0.9,7.3,2.4c0,1.4-0.8,2.8-6.7,2.8h-6.1V248.4z
	 M391.5,256.2h6.5c5.6,0,7.7,0.8,7.7,2.9c0,2.3-1.7,2.9-8,2.9h-6.2V256.2z M515.5,202.5L515.5,202.5l0-19.5h-14.3l-0.1,20
	C506.5,202.7,511.4,202.6,515.5,202.5 M501.1,205.9L501.1,205.9l-0.1,14.6l-12.5-13.9l-0.5,0c-5.3,0.3-10.7,0.7-16.1,1.1l27.4,30.2
	h16.4c0-10.9,0-21.8,0-32.7C512.7,205.3,508,205.5,501.1,205.9 M467.1,183h-17.9l0,23.8c1.2-0.1,7-0.6,15.1-1.3h0.1l0-6l5.1,5.6
	l0.5,0c5.6-0.4,11-0.8,16.1-1.2L467.1,183L467.1,183z M449.2,209.6L449.2,209.6l-0.1,28.4l15.2,0l0-29.6
	C459.1,208.7,454.2,209.1,449.2,209.6"/>
<path class="st0" d="M538.6,201.9c-7.7,0.1-15.4,0.3-23.2,0.6l0,2.7c7.4-0.2,15.1-0.4,23.1-0.5h0.6v-0.6c0-0.5,0-1,0-1.5l0-0.7
	L538.6,201.9z M526.4,189.7h0.7c0.8,0,1.5-0.3,1.5-0.9c0-0.6-0.4-1-1.4-1c-0.4,0-0.7,0-0.8,0.1L526.4,189.7L526.4,189.7z
	 M526.4,193.3h-1.5v-6.5c0.6-0.1,1.4-0.2,2.5-0.2c1.2,0,1.8,0.2,2.2,0.5c0.4,0.3,0.7,0.8,0.7,1.4c0,0.8-0.6,1.3-1.4,1.6v0.1
	c0.6,0.2,1,0.7,1.1,1.6c0.2,1,0.4,1.4,0.5,1.6H529c-0.2-0.2-0.3-0.8-0.5-1.6c-0.1-0.7-0.5-1-1.4-1h-0.7V193.3z M527.4,184.7
	c-2.8,0-5,2.3-5,5.2c0,2.9,2.2,5.2,5.1,5.2c2.8,0,5-2.3,5-5.1C532.5,187.1,530.3,184.7,527.4,184.7L527.4,184.7z M527.5,183.4
	c3.7,0,6.7,2.9,6.7,6.5c0,3.7-2.9,6.6-6.7,6.6c-3.8,0-6.8-2.9-6.8-6.6C520.7,186.3,523.7,183.4,527.5,183.4L527.5,183.4z
	 M527.5,183.4"/>
</svg>
