<svg width="256" height="256" viewBox="0 0 256 256" fill="none" xmlns="http://www.w3.org/2000/svg">
<g clip-path="url(#clip0_38_2)">
<path fill-rule="evenodd" clip-rule="evenodd" d="M0 0H256V256H0V0Z" fill="white"/>
<path fill-rule="evenodd" clip-rule="evenodd" d="M233.599 165.3C230.486 163.673 230.004 159.074 230.074 147.895L230.144 130.76L224.241 130.752L225.566 127.576H230.144V119.462L241.112 115.404L241.109 127.305L246.136 127.315L244.808 130.83L241.112 130.825L241.093 160.479C241.335 162.868 242.139 164.273 243.282 165.299L233.599 165.3ZM125.833 92.023C126.671 94.318 128.566 96.6873 127.218 99.3462C126.562 102.042 124.01 104.23 121.314 104.665C118.508 104.92 115.812 104.447 113.734 102.734C112.239 94.9369 115.411 87.7213 121.568 83.4222L125.833 92.023Z" fill="#B01842"/>
<path fill-rule="evenodd" clip-rule="evenodd" d="M136.71 115.78C135.306 120.499 121.369 117.402 116.997 109.659C122.735 110.296 129.203 105.214 129.312 99.4205L136.71 115.78ZM142.411 115.169C143.049 114.886 144.336 114.249 144.653 112.882L129.659 80.3609C128.657 80.2334 127.927 80.1418 126.652 81.0528L142.411 115.169ZM149.153 108.109C155.532 98.4523 150.157 82.6014 136.419 80.3795L149.153 108.109ZM147.746 128.902C149.754 127.215 153.292 127.175 155.579 128.259C156.545 128.741 157.468 129.385 158.07 130.227L153.652 137.099C153.089 136.655 152.687 136.456 151.964 136.095C149.776 135.15 147.466 135.703 146.138 136.897V156.946C146.11 160.411 146.712 163.573 148.509 165.22H138.465C136.378 163.614 135.856 161.043 135.654 158.792L135.573 132.137C135.663 129.979 135.111 129.024 134.247 127.818L144.652 127.859C145.498 128.461 145.536 129.506 145.98 130.311L147.746 128.902ZM160.442 135.49C160.361 132.959 160.924 129.927 159.266 127.737H168.919C169.562 128.219 169.923 129.024 170.125 129.786C170.647 130.469 170.607 131.433 170.846 132.238L170.927 160.642C171.329 162.329 171.972 164.035 173.218 165.361L162.895 165.382C159.52 162.119 160.625 156.744 160.363 151.201L160.442 135.49ZM175.709 135.772C176.752 132.877 180.007 131.432 182.378 129.866C185.992 128.541 189.971 125.245 194.027 127.939C197.401 130.146 200.374 132.639 202.504 136.052C203.026 137.378 203.266 138.864 203.63 140.27C203.63 142.159 204.03 143.564 203.99 145.453C204.11 147.502 204.11 149.352 203.99 151.359C203.868 154.772 202.262 157.825 199.57 160.196C195.553 163.772 190.491 167.83 185.029 165.057C180.127 162.766 174.341 158.226 174.703 152.001C174.504 147.582 174.303 143.766 174.905 139.466C175.146 138.221 175.024 136.857 175.709 135.772ZM185.75 155.86C186.232 157.626 187.156 159.795 189.285 160.037C190.531 160.078 191.457 159.032 192.178 158.148C194.429 153.731 194.108 148.908 194.108 143.887C193.384 140.152 194.268 135.05 190.251 132.759C188.844 132.237 187.761 133.202 186.876 134.084C185.309 136.455 185.128 139.165 185.029 142.18C184.505 147.002 185.069 150.999 185.75 155.86ZM211.142 165.3C208.026 163.673 207.547 159.074 207.617 147.895L207.688 130.76L201.781 130.752L203.107 127.576H207.688V119.462L218.655 115.404L218.65 127.305L223.677 127.315L222.351 130.83L218.655 130.825L218.634 160.479C218.875 162.868 219.679 164.273 220.822 165.298L211.142 165.3ZM110.866 132.136C110.801 129.972 110.404 129.023 109.541 127.817L119.945 127.858C120.79 128.46 120.83 129.505 121.272 130.31L123.04 128.9C125.048 127.214 128.583 127.174 130.873 128.258C131.838 128.74 132.761 129.384 133.363 130.226L128.946 137.097C128.382 136.654 127.98 136.455 127.258 136.093C125.069 135.149 122.758 135.702 121.431 136.896V156.945C121.402 160.41 122.005 163.572 123.803 165.219H113.76C111.671 163.613 111.076 161.219 110.947 158.791L110.866 132.136ZM32.164 142.683L28.3616 150.46C25.7798 155.048 22.158 160.679 16.6013 162.078C14.4497 162.83 12.5505 162.148 10.4694 162.005L3.76514 172.978C4.26716 173.514 4.97504 173.968 5.66565 174.233C17.4632 178.731 22.2125 173.89 33.8308 147.644L44.8022 171.024H59.414L52.5119 155.245L56.4191 147.089L67.2113 170.663L81.1949 170.753L56.7246 116.97L45.4517 122.572L54.2849 142.644L50.4121 150.531L34.2239 115.581L22.3466 121.632L32.164 142.683ZM77.0791 152.164C77.3607 148.264 79.4896 144.609 83.1061 142.641C86.6813 140.431 90.8595 139.547 94.5557 137.619C95.1985 137.097 96.002 136.455 96.0418 135.611C96.0817 134.566 95.5597 133.761 94.6353 133.401C89.0108 132.195 84.3505 135.731 80.2533 139.228C80.7752 136.654 81.1763 133.842 82.3823 131.433C82.9852 130.79 83.3465 129.906 84.15 129.425C88.1276 127.455 93.1093 126.894 97.5691 127.214C101.225 127.454 104.6 130.065 105.845 133.401C106.487 134.969 106.447 136.735 106.567 138.343L106.608 160.118C106.648 162.006 107.531 163.775 108.656 165.3H98.2504C97.0047 164.174 96.3924 162.768 96.0418 161.002C93.1293 163.573 87.0519 167.392 83.4275 164.859C79.6703 163.169 76.2358 157.505 77.0791 152.164ZM95.5185 144.589C95.4388 143.082 94.3538 142.924 93.5901 142.924C91.0999 143.284 88.955 145.37 87.7651 147.502C86.6999 149.412 86.4489 151.016 86.3586 152.684C86.3493 154.482 86.2377 155.817 86.9616 157.185C87.3626 158.067 88.2472 158.469 89.0918 158.71C90.6975 159.031 92.1863 158.59 93.4308 157.747C96.3632 156.097 95.8399 152.802 95.8811 149.871L95.5185 144.589ZM250.876 160.238C251.398 160.772 251.66 161.4 251.66 162.127C251.66 162.873 251.398 163.515 250.871 164.049C250.346 164.58 249.714 164.846 248.972 164.846C248.229 164.846 247.594 164.581 247.07 164.054C246.813 163.804 246.61 163.504 246.473 163.173C246.336 162.841 246.269 162.485 246.276 162.127C246.276 161.398 246.535 160.771 247.057 160.238C247.582 159.694 248.221 159.424 248.97 159.424C249.714 159.424 250.348 159.694 250.876 160.238ZM251.279 159.821C250.98 159.513 250.621 159.27 250.225 159.105C249.828 158.941 249.402 158.86 248.973 158.866C248.115 158.866 247.367 159.163 246.73 159.751C246.052 160.384 245.712 161.175 245.712 162.127C245.712 163.045 246.026 163.818 246.654 164.446C247.285 165.077 248.058 165.39 248.973 165.39C249.863 165.39 250.622 165.082 251.259 164.47C251.575 164.168 251.826 163.805 251.994 163.401C252.162 162.998 252.245 162.564 252.236 162.127C252.236 161.226 251.917 160.459 251.279 159.821ZM249.378 161.881C249.223 161.978 249.041 162.024 248.859 162.014H248.491V160.966H248.722C248.958 160.966 249.139 160.99 249.272 161.042C249.466 161.118 249.563 161.254 249.563 161.452C249.561 161.65 249.499 161.792 249.378 161.881ZM248.491 162.665H248.69L248.897 162.678C249.008 162.68 249.117 162.699 249.221 162.735C249.282 162.757 249.338 162.792 249.383 162.837C249.429 162.883 249.464 162.939 249.486 163C249.516 163.078 249.535 163.225 249.543 163.443C249.553 163.661 249.571 163.827 249.602 163.944H250.506L250.475 163.843C250.451 163.775 250.44 163.703 250.443 163.63V163.306C250.443 162.938 250.337 162.669 250.124 162.497C249.971 162.39 249.795 162.319 249.61 162.29C249.838 162.272 250.056 162.187 250.236 162.046C250.407 161.91 250.49 161.69 250.49 161.387C250.49 160.987 250.332 160.699 250.01 160.524C249.788 160.412 249.545 160.348 249.297 160.337C249.048 160.332 248.799 160.33 248.551 160.331C248.104 160.329 247.77 160.329 247.544 160.329V163.945H248.491V162.665Z" fill="#B01842"/>
</g>
<defs>
<clipPath id="clip0_38_2">
<rect width="256" height="256" fill="white"/>
</clipPath>
</defs>
</svg>
