<svg width="256" height="256" viewBox="0 0 256 256" fill="none" xmlns="http://www.w3.org/2000/svg">
<g clip-path="url(#clip0_1_30)">
<path d="M0 0H256V256H0V0Z" fill="#12100E"/>
<path d="M61.0908 85.6168C61.1962 84.5759 61.0549 83.5247 60.6783 82.5485C60.3018 81.5723 59.7005 80.6985 58.9233 79.998L42.8636 60.6522V57.764H92.7245L131.262 142.285L165.146 57.764H212.677V60.6536L198.947 73.8172C198.367 74.2599 197.918 74.8527 197.649 75.5316C197.38 76.2106 197.302 76.9501 197.422 77.6703V174.391C197.302 175.111 197.38 175.851 197.649 176.53C197.918 177.209 198.367 177.802 198.947 178.244L212.355 191.408V194.297H144.913V191.408L158.803 177.923C160.168 176.557 160.168 176.157 160.168 174.071V95.891L121.549 193.976H116.329L71.3676 95.891V161.629C71.1827 162.993 71.3107 164.381 71.742 165.689C72.1732 166.996 72.8964 168.188 73.8567 169.174L91.9211 191.086V193.976H40.6974V191.088L58.7619 169.174C59.7144 168.187 60.4215 166.99 60.8261 165.679C61.2306 164.369 61.3213 162.981 61.0908 161.629V85.6168Z" fill="white"/>
</g>
<defs>
<clipPath id="clip0_1_30">
<rect width="256" height="256" fill="white"/>
</clipPath>
</defs>
</svg>
