<svg width="256" height="256" viewBox="0 0 256 256" fill="none" xmlns="http://www.w3.org/2000/svg">
<g clip-path="url(#clip0_38_25)">
<path fill-rule="evenodd" clip-rule="evenodd" d="M0 0H256V256H0V0Z" fill="white"/>
<path fill-rule="evenodd" clip-rule="evenodd" d="M45.7014 112.937C53.8267 112.937 59.1989 118.965 59.1989 127.878C59.1989 136.788 53.6952 142.949 45.7014 142.949C37.7062 142.949 32.0724 136.526 32.0724 127.878C32.0711 119.095 37.7062 112.937 45.7014 112.937ZM45.7014 140.981C51.5982 140.981 54.7445 136.262 54.7445 127.876C54.7445 119.62 51.5995 114.771 45.7014 114.771C39.8033 114.771 36.5282 119.62 36.5282 127.615C36.5269 136.263 39.6731 140.981 45.7014 140.981ZM116.206 127.352C116.206 136.657 110.964 142.423 101.921 142.423H92.7481C92.7481 142.423 93.0098 133.249 93.0098 127.876C93.0098 122.633 92.7481 113.328 92.7481 113.328H103.232C111.749 113.33 116.206 118.179 116.206 127.352ZM111.881 127.483C111.881 119.62 108.211 115.165 101.135 115.165C97.9902 115.165 96.8108 115.297 96.8108 115.297C96.8108 115.297 97.0725 115.951 97.0725 117.131C96.941 119.621 96.941 124.338 96.941 127.878C96.941 131.808 97.0725 135.873 97.0725 138.36C97.0725 139.673 96.8108 140.459 96.8108 140.459C96.8108 140.459 97.9902 140.589 100.612 140.589C108.08 140.586 111.881 136 111.881 127.483ZM204.663 112.937C212.92 112.937 218.295 118.965 218.295 127.878C218.295 136.788 212.79 142.949 204.663 142.949C196.671 142.949 191.167 136.526 191.167 127.878C191.166 119.095 196.671 112.937 204.663 112.937ZM204.663 140.981C210.562 140.981 213.838 136.262 213.838 127.876C213.838 119.62 210.562 114.771 204.663 114.771C198.768 114.771 195.623 119.62 195.623 127.615C195.623 136.263 198.767 140.981 204.663 140.981ZM6.38553 132.201C6.38553 139.277 6.77865 142.423 6.77865 142.423H3.76385C3.76385 142.423 4.15697 130.758 4.15697 119.488C4.15697 117.524 4.02549 113.328 4.02549 113.328H6.12257C6.12257 113.328 14.2479 124.862 19.6214 132.332C20.3534 133.375 21.0103 134.47 21.587 135.606C21.587 135.606 21.3254 133.642 21.3254 131.806V123.551C21.3254 116.213 20.9323 113.328 20.9323 113.328H23.9471C23.9471 113.328 23.5539 124.075 23.5539 136.395C23.5539 137.573 23.6854 142.423 23.6854 142.423H21.5883C21.5883 142.423 13.5945 131.153 8.08949 123.551C7.30325 122.371 6.77865 121.585 6.25538 120.537C6.25538 120.537 6.38686 123.028 6.38686 124.337L6.38553 132.201ZM129.703 140.981C133.111 140.848 135.601 137.966 135.077 134.82C134.683 132.332 132.849 130.89 129.703 129.053C125.641 126.827 123.283 125.123 122.889 121.192C122.365 116.343 126.296 112.935 131.145 112.805C133.897 112.674 136.387 113.46 137.306 113.723V116.868C137.306 116.868 135.077 114.641 131.408 114.641C128.788 114.641 126.036 116.213 126.036 119.095C126.036 121.585 128.133 122.896 131.541 124.992C136.257 127.744 138.617 129.972 138.617 134.034C138.617 139.276 134.423 142.946 129.312 142.946C126.69 142.946 124.07 142.422 123.152 142.029V138.623C123.151 138.623 125.641 141.111 129.703 140.981ZM161.811 113.33V116.082C161.811 116.082 159.715 115.427 156.177 115.427H154.34V123.944C154.34 132.071 154.735 142.423 154.735 142.423H150.149C150.149 142.423 150.541 132.071 150.541 123.944C150.541 122.503 150.41 117.261 150.41 117.261C150.41 116.213 150.541 115.427 150.541 115.427H148.575C145.17 115.427 143.073 116.082 143.073 116.082V113.33H161.811ZM252.236 142.423H247.912C247.912 142.423 247.648 131.806 247.256 124.337V121.192C247.256 121.192 246.731 122.633 246.075 124.207L238.08 143.209C238.08 143.209 233.625 132.987 230.087 125.255C229.563 124.207 228.907 122.11 228.383 121.192C228.514 122.765 228.383 124.469 228.251 125.648C227.726 133.249 227.597 142.423 227.597 142.423H224.845L226.679 113.328H229.17C229.17 113.328 234.542 125.385 237.95 132.857C238.342 133.772 238.867 134.821 239.13 135.872C239.392 134.691 239.784 133.773 240.178 132.857C243.322 125.386 248.173 113.328 248.173 113.328H250.664L252.236 142.423ZM185.138 120.144C185.138 124.075 182.778 126.697 178.453 127.745C181.205 132.858 186.842 142.424 186.842 142.424H182.253C182.253 142.424 179.896 137.444 173.604 126.435H173.999C178.715 126.435 181.205 124.47 181.205 120.67C181.205 117.394 179.109 115.165 175.31 115.165C174.129 115.165 172.425 115.297 172.425 115.297C172.425 115.297 172.687 115.951 172.687 117.787V132.727C172.687 139.28 172.948 142.426 172.948 142.426H168.624C168.624 142.426 168.886 131.023 168.886 124.994C168.886 120.932 168.624 113.331 168.624 113.331H177.143C182.386 113.33 185.138 115.82 185.138 120.144ZM83.9667 120.144C83.9667 124.075 81.4765 126.697 77.2837 127.745C80.0355 132.858 85.5405 142.424 85.5405 142.424H80.9533C80.9533 142.424 78.5945 137.444 72.3033 126.435H72.8279C77.4152 126.435 79.9054 124.47 79.9054 120.67C79.9054 117.394 77.8083 115.165 74.0086 115.165C72.9594 115.165 71.1253 115.297 71.1253 115.297C71.1253 115.297 71.3869 115.951 71.3869 117.787V132.727C71.3869 139.28 71.6486 142.426 71.6486 142.426H67.3243C67.3243 142.426 67.7174 131.023 67.7174 124.994C67.7174 120.932 67.3243 113.331 67.3243 113.331H75.9742C81.0847 113.33 83.9667 115.82 83.9667 120.144Z" fill="black"/>
</g>
<defs>
<clipPath id="clip0_38_25">
<rect width="256" height="256" fill="white"/>
</clipPath>
</defs>
</svg>
