<svg xmlns:inkscape="http://www.inkscape.org/namespaces/inkscape" xmlns:sodipodi="http://sodipodi.sourceforge.net/DTD/sodipodi-0.dtd" xmlns="http://www.w3.org/2000/svg" xmlns:svg="http://www.w3.org/2000/svg" version="1.1" id="Layer_1" x="0px" y="0px" viewBox="0 0 1000 111.78611" xml:space="preserve" sodipodi:docname="OfficeDepot.svg" width="1000" height="111.78612" inkscape:version="1.3 (0e150ed6c4, 2023-07-21)"><defs id="defs23"><clipPath clipPathUnits="userSpaceOnUse" id="clipPath27"><rect style="opacity:0.3;fill:#000000" id="rect27" width="1000.0328" height="111.85973" x="5.279469e-08" y="-0.073615693" ry="0"/></clipPath></defs><sodipodi:namedview id="namedview23" pagecolor="#ffffff" bordercolor="#000000" borderopacity="0.25" inkscape:showpageshadow="2" inkscape:pageopacity="0.0" inkscape:pagecheckerboard="0" inkscape:deskcolor="#d1d1d1" inkscape:zoom="0.849" inkscape:cx="472.90931" inkscape:cy="145.46525" inkscape:window-width="1366" inkscape:window-height="705" inkscape:window-x="-8" inkscape:window-y="-8" inkscape:window-maximized="1" inkscape:current-layer="Layer_1"/>
<style type="text/css" id="style1">
	.st0{fill:#B31917;}
</style>
<g id="g23" clip-path="url(#clipPath27)">
	<g id="g12">
		<path class="st0" d="m 193.7,19.4 c -4.1,-0.8 -7.8,-1.3 -11,-1.3 -8.4,0 -13.2,3.3 -13.2,11 v 6.5 h 19.4 v 17.3 h -19.4 v 39.4 c 5.4,0.5 11.2,1.1 16,1.9 v 14.5 h -60 V 94.1 c 4.8,-0.7 10.6,-1.4 16.1,-1.9 V 52.8 H 124.4 V 35.6 h 17.2 V 29.4 C 141.6,9.9 153.3,0 179.8,0 c 4.9,0 10.1,0.3 15.6,1.2 z" id="path1"/>
		<path class="st0" d="m 264.6,19.4 c -4.2,-0.8 -8,-1.3 -11.1,-1.3 -8.5,0 -13.2,3.3 -13.2,11 v 6.5 h 19.2 v 17.3 h -19.2 v 39.4 c 5.4,0.5 11.2,1.1 16,1.9 v 14.5 H 196.4 V 94.1 c 4.9,-0.7 10.4,-1.4 16,-1.9 V 52.8 H 195.1 V 35.6 h 17.3 V 29.4 C 212.4,9.9 224.2,0 250.6,0 c 4.9,0 10.1,0.3 15.6,1.2 z" id="path2"/>
		<path class="st0" d="m 296,28 c -9.3,0 -17.1,-5.9 -17.1,-13.2 0,-7.4 7.7,-13.2 17.1,-13.2 9.5,0 17.1,5.8 17.1,13.2 0,7.2 -7.6,13.2 -17.1,13.2 m -30,80.7 V 94.1 c 4.8,-0.7 10.5,-1.4 15.9,-1.9 V 52.6 C 277.6,52 271.3,51.4 266,51.2 V 36.8 c 13.3,-1.3 28.5,-1.8 44,-1.3 v 56.7 c 5.1,0.5 10.5,1.1 14.7,1.9 v 14.5 z" id="path3"/>
		<path class="st0" d="m 369.3,110.1 c -29.4,0 -45.5,-12 -45.5,-35.7 0,-22 14.6,-40.3 49.5,-40.3 6.8,0 14.4,0.9 21,2.4 v 25 h -18 c -0.7,-3 -1.2,-5.7 -1.7,-8.2 -1.4,-0.5 -3.2,-0.5 -5,-0.5 -9.7,0 -16.7,6.9 -16.7,18.9 0,12.5 6.3,19 22.7,19 5.7,0 12.2,-1 17.5,-2.9 l 1.9,19.4 c -8.3,1.9 -15.9,2.9 -25.7,2.9" id="path4"/>
		<path class="st0" d="m 443.7,50.2 c -8,0 -13.9,5 -14.6,12.5 h 27.6 c 0.3,-8.1 -4.9,-12.5 -13,-12.5 m 39.6,27.4 h -54.5 c 0.3,9.8 7.5,15.3 22.6,15.3 9,0 18.4,-1.5 26.9,-4.6 l 2.5,17 c -10.3,3.4 -22.6,5.1 -33.8,5.1 -30.1,0 -46.5,-11.9 -46.5,-37.5 0,-22.4 15.6,-39.1 43.9,-39.1 27.6,0 39.7,14.9 39.7,34.1 0,3.1 -0.3,6.2 -0.8,9.7" id="path5"/>
		<path class="st0" d="m 32.2,56.4 c 0,17.2 10.6,30.4 28.1,30.4 17.4,0 28.1,-13.2 28.1,-30.4 0,-16 -9.8,-30.8 -28.1,-30.8 C 42,25.7 32.2,40.5 32.2,56.4 m 88.4,0.2 c 0,33.3 -27,53.2 -60.3,53.2 C 27.1,109.8 0,89.9 0,56.6 0,24 27.2,2.8 60.3,2.8 c 33.1,0 60.3,21.2 60.3,53.8" id="path6"/>
		<path class="st0" d="m 560,50.8 c -3.4,0 -2.5,0 -4.6,0.3 v 41.8 c 1.2,0.2 0.5,0.2 4,0.2 13,0 24.8,-7.5 24.8,-21.2 0,-11.3 -4.7,-21.1 -24.2,-21.1 m -4.3,58.5 c -11.3,0 -24,-0.6 -27.9,-0.6 H 514.3 V 96.8 c 4.1,-0.8 8.6,-1.3 13.5,-1.5 V 49.1 C 522.9,49 518.4,48.5 514.3,48 V 35.5 H 527 c 8.7,0 17.8,-0.3 33.3,-0.3 31.1,0 52.8,8.8 52.8,35.2 0,24.9 -22.9,38.9 -57.4,38.9" id="path7"/>
		<path class="st0" d="M 617,108.6 V 96.7 c 4,-0.8 8.6,-1.3 13.3,-1.5 V 49.1 C 625.5,49 621,48.5 617,48 V 35.5 h 81.7 v 20 h -21.5 c -0.6,-1.8 -0.8,-3.5 -1,-5.1 l -18.1,-0.1 v 14.6 h 16.7 c 0.4,-1.4 0.4,-2.2 1,-3.5 h 15.9 v 19.8 h -15.9 c -0.6,-1.2 -0.7,-1.8 -1,-3.1 h -16.7 v 16.7 h 18 c 0.4,-2 0.9,-4.7 1.4,-6.6 h 21.8 v 20.5 c -0.2,-0.1 -82.3,-0.1 -82.3,-0.1 z" id="path8"/>
		<path class="st0" d="m 758.5,50.8 c -0.4,0 -3.7,0 -5.1,0.2 v 20.5 c 1.3,0.3 3.9,0.3 4.5,0.3 8,0 14.3,-3.7 14.3,-10.6 0,-5.2 -3,-10.4 -13.7,-10.4 m -1.8,35.4 c -0.7,0 -1.2,0 -3.2,-0.1 v 9.2 c 4.8,0.2 9.2,0.7 13.4,1.4 v 11.9 H 712.8 V 96.8 c 4.2,-0.7 8.6,-1.3 13.3,-1.5 V 49 C 721.4,48.9 717,48.4 712.8,47.9 V 35.5 h 13.1 c 5.1,0 17.5,-0.5 29.1,-0.5 28.5,0 44,8.5 44,24.4 -0.1,14.2 -13.8,26.8 -42.3,26.8" id="path9"/>
		<path class="st0" d="M 972.5,59.7 C 972,57.3 971.3,53.6 971,50.9 h -10.9 v 44.4 c 4.7,0.2 9,0.7 13.1,1.5 v 11.8 H 919.3 V 96.8 c 4.1,-0.8 8.6,-1.3 13.4,-1.5 V 50.9 h -11.1 c -0.2,2.6 -0.9,6.4 -1.5,8.8 H 901.7 V 35.5 H 991 v 24.2 z" id="path10"/>
		<path class="st0" d="m 990.7,101.6 h 1 c 1.3,0 2.2,-0.5 2.2,-1.5 0,-0.8 -0.6,-1.4 -2.2,-1.4 -0.4,0 -0.8,0 -1,0 z m 0,4.5 h -1.4 v -8.3 c 0.8,-0.1 1.4,-0.2 2.6,-0.2 1.3,0 2.2,0.3 2.8,0.7 0.4,0.3 0.7,0.9 0.7,1.7 0,1.2 -0.7,1.7 -1.7,2 v 0.2 c 0.7,0 1.2,0.7 1.4,2 0.3,1.2 0.5,1.8 0.6,2 h -1.5 c -0.2,-0.2 -0.3,-1 -0.5,-2.1 -0.2,-1.1 -0.9,-1.6 -2,-1.6 h -0.9 z m 1.4,-10.6 c -3.4,0 -6.3,2.8 -6.3,6.3 0,3.4 2.9,6.3 6.4,6.3 3.6,0 6.4,-2.9 6.4,-6.3 0,-3.5 -2.8,-6.3 -6.5,-6.3 0.1,0 0,0 0,0 z m 0.1,-1.2 c 4.5,0 7.8,3.4 7.8,7.5 0,4.3 -3.3,7.5 -7.9,7.5 -4.3,0 -8,-3.2 -8,-7.5 0,-4.1 3.7,-7.5 8.1,-7.5 -0.1,0 0,0 0,0 z" id="path11"/>
		<path class="st0" d="m 830.7,72 c 0,11.4 7.5,21.2 20.3,21.2 12.8,0 20.3,-9.7 20.3,-21.2 0,-10.6 -6.9,-21.1 -20.3,-21.1 -13.4,0 -20.3,10.5 -20.3,21.1 m 67.9,0.2 c 0,24.6 -20.4,39.3 -47.6,39.3 -27.2,0 -47.5,-14.8 -47.5,-39.3 0,-24.1 20.4,-39.7 47.5,-39.7 27.1,0 47.6,15.6 47.6,39.7" id="path12"/>
	</g>
	<g id="g22">
		<path class="st0" d="m 179.2,166.1 c 9.4,11.1 13.3,27.1 13.3,41.4 0,13.3 -3.2,29.1 -11.3,39.9 -9.2,12.2 -24.8,17.8 -39.8,17.8 -14.9,0 -29.5,-4 -39.5,-15.9 -9.1,-10.8 -12.5,-28 -12.5,-41.9 0,-13.2 3,-28.6 11.1,-39.4 9.2,-11.9 24.8,-17.6 39.5,-17.6 14.9,0 29.2,3.8 39.2,15.7 m -59.4,41.6 c 0,14.6 1.6,34.6 21.1,34.6 19,0 21.1,-18.9 21.1,-33.7 0,-14.6 -1.4,-35.4 -20.8,-35.4 -19.3,0 -21.4,19.4 -21.4,34.5" id="path13"/>
		<path class="st0" d="m 234.9,233.1 c 0,2.1 -0.6,11.1 2.9,11.1 1.6,0 3.2,-1.1 5.2,-1.1 5.2,0 7,4.3 7,9 0,6 -2.7,11 -9.4,11 -6.8,-0.2 -13.2,-1.6 -19.7,-1.6 -6,0 -12.1,1.4 -17.3,1.6 -6,0 -8.7,-4.9 -8.7,-11 0,-4.8 1.7,-9 7,-9 2.1,0 3.7,1.1 5.2,1.1 3.5,0 2.9,-9 2.9,-11.1 v -29 c 0,-5.6 0.3,-6.2 -5.4,-6.2 -6.2,0 -9.7,-1.4 -9.7,-8.4 0,-6.5 2.4,-9.4 8.9,-9.4 4.9,0 6.2,0.5 6.3,-5.2 0.6,-17.3 15.6,-24.4 31.3,-24.4 5.2,0 11.8,1 16.4,3.3 5.4,2.9 9.5,8 9.5,14.1 0,7 -4.8,12.4 -11.9,12.4 -5.2,0 -10.8,-3.6 -10.8,-9.4 0,-1.7 0.5,-2.7 1.4,-4.3 -1.1,-0.5 -1.9,-0.6 -3.2,-0.6 -5.9,0 -7.9,3.5 -7.9,9.1 0,5.1 0.3,5.1 5.4,5.1 6.7,0 11.3,0.3 11.3,8.6 0,7.3 -3,9.2 -10,9.2 -6.5,0 -6.7,-0.3 -6.7,6.2 v 28.9" id="path14"/>
		<path class="st0" d="m 297.8,233.1 c 0,2.1 -0.6,11.1 2.9,11.1 1.6,0 3.2,-1.1 5.2,-1.1 5.2,0 7,4.3 7,9 0,6 -2.7,11 -9.4,11 -6.8,-0.2 -13.2,-1.6 -19.7,-1.6 -6,0 -12,1.4 -17.3,1.6 -6,0 -8.7,-4.9 -8.7,-11 0,-4.8 1.7,-9 7,-9 2.1,0 3.6,1.1 5.2,1.1 3.5,0 2.9,-9 2.9,-11.1 v -29 c 0,-5.6 0.3,-6.2 -5.4,-6.2 -6.2,0 -9.7,-1.4 -9.7,-8.4 0,-6.5 2.4,-9.4 8.9,-9.4 4.9,0 6.2,0.5 6.3,-5.2 0.6,-17.3 15.6,-24.4 31.3,-24.4 5.2,0 11.7,1 16.3,3.3 5.4,2.9 9.5,8 9.5,14.1 0,7 -4.8,12.4 -11.9,12.4 -5.2,0 -10.8,-3.6 -10.8,-9.4 0,-1.7 0.5,-2.7 1.4,-4.3 -1.1,-0.5 -1.9,-0.6 -3.2,-0.6 -5.9,0 -8,3.5 -8,9.1 0,5.1 0.3,5.1 5.4,5.1 6.7,0 11.3,0.3 11.3,8.6 0,7.3 -3,9.2 -10,9.2 -6.5,0 -6.7,-0.3 -6.7,6.2 l 0.2,28.9" id="path15"/>
		<path class="st0" d="m 362,233.1 c -0.2,2.1 -0.8,11.1 2.7,11.1 1.6,0 3.2,-1.1 5.2,-1.1 5.2,0 7,4.3 7,9 0,6 -2.7,11 -9.4,11 -6.8,-0.2 -13.2,-1.6 -19.7,-1.6 -6,0 -12.1,1.4 -17.8,1.6 -6.7,0 -9.4,-4.9 -9.4,-11 0,-4.8 1.7,-9 7,-9 2.1,0 3.6,1.1 5.2,1.1 3.5,0 2.9,-9 2.9,-11.1 v -22.9 c 0,-2.1 0.6,-11.1 -2.9,-11.1 -1.6,0 -3.2,1.1 -5.2,1.1 -5.2,0 -7,-4.3 -7,-9.1 0,-6 2.7,-11 9.5,-11 4.5,0 8.7,1.6 13,1.6 4.8,0 9.4,-1.6 14,-1.6 4.8,0 4.8,4.5 4.8,8.1 z m 0.8,-74.2 c 0,8.3 -6.7,14.9 -14.9,14.9 -8.2,0 -14.9,-6.7 -14.9,-14.9 0,-8.2 6.7,-14.9 14.9,-14.9 8.3,0 14.9,6.7 14.9,14.9" id="path16"/>
		<path class="st0" d="m 415.3,198.6 c -11.8,0 -15.9,12.4 -15.9,22.2 0,5.1 1.1,11.6 4,15.9 2.9,4.1 8.2,7 13.2,7 7.3,0 9.7,-4 12.2,-10 1.1,-2.7 1.4,-4.4 4,-6 2.1,-1.4 4.6,-1.9 7,-1.9 6.8,0 12.3,4.5 12.3,11.7 0,7.6 -4.6,14.6 -10.4,19.2 -7.3,6 -16.7,8.4 -26,8.4 -11.3,0 -22.2,-3 -30.3,-11.3 -8.1,-8.1 -12.1,-20.6 -12.1,-31.9 0,-27 16.5,-44.1 43.7,-44.1 14.8,0 33.2,7 33.2,24.6 0,8.4 -6.8,14 -14.9,14 -6.5,0 -12.7,-3 -12.7,-10.3 0,-2.1 0.5,-3.2 1.6,-4.8 -2.9,-2 -5.3,-2.7 -8.9,-2.7" id="path17"/>
		<path class="st0" d="m 487.1,225.9 c -3.2,0 -7.1,-1 -7.1,3.3 0,9.1 7.1,15.9 16.4,15.9 13.5,0 12.5,-12.5 24.9,-12.5 6.2,0 10.9,3.7 10.9,10 0,7 -5.2,12.7 -10.9,16.2 -7.5,4.6 -16.5,6.4 -25.2,6.4 -26.1,0 -42.2,-17.5 -42.2,-43.2 0,-25.1 15.6,-44.1 41.6,-44.1 9.5,0 19.7,2.1 26.9,8.7 7.5,6.8 11.4,17.6 11.4,27.6 0,9.4 -1,11.8 -10.5,11.8 z m 14.8,-17.6 c 2.6,0 5.6,0.8 5.6,-2.7 0,-2.4 -1.6,-5.2 -3.3,-6.8 -2.4,-2.1 -5.4,-3 -8.6,-3 -4.3,0 -7.8,1 -10.8,4.3 -1.4,1.4 -4,4 -4,6 0,3 4.9,2.2 6.7,2.2 h 14.4" id="path18"/>
		<path class="st0" d="m 632.1,166.9 c 1.4,-5.9 3,-14.4 12,-14.3 8.1,0 16.1,1.6 24.1,1.6 5.7,0 13.7,-1.6 21.8,-1.6 7.1,0 11.1,5.3 11.1,12.1 0,4.8 -2.9,10.6 -8.2,10.6 -2.4,0 -4.6,-1.1 -7.1,-1.1 -4.8,0 -4,9.8 -4,12.9 v 41.6 c 0,3 -0.8,12.8 4,12.8 2.5,0 4.8,-1.1 7.1,-1.1 5.4,0 8.2,5.9 8.2,10.6 0,6.8 -4,12.1 -11.1,12.1 -6.8,0 -13.7,-1.6 -19.2,-1.6 -7,0 -13.8,1.6 -20.7,1.6 -6,0 -8.7,-5.2 -8.7,-12.1 0,-4.8 1.9,-10.6 5.6,-10.6 1.6,0 3.2,1.1 4.9,1.1 3.3,0 2.9,-9.8 2.9,-12.8 v -54.8 l -21.9,75.2 c -1,3.3 -1.9,6.2 -4,9.1 -2.2,3.2 -4.6,3.2 -8.2,3.2 h -5.4 c -9.7,0 -10.1,-2.9 -12.4,-12.2 L 581.6,174 v 54.8 c 0,3 -0.3,12.8 3,12.8 1.7,0 3.3,-1.1 4.9,-1.1 3.6,0 5.6,5.9 5.6,10.6 0,6.8 -2.7,12.1 -7.6,12.1 -6.8,0 -13.6,-1.6 -19.2,-1.6 -7,0 -13.8,1.6 -20.6,1.6 -8.4,0 -12.4,-5.2 -12.4,-12.1 0,-4.8 2.9,-10.6 8.3,-10.6 2.4,0 4.6,1.1 7.1,1.1 4.8,0 4,-9.8 4,-12.8 V 187 c 0,-3 0.8,-12.9 -4,-12.9 -2.5,0 -4.7,1.1 -7.1,1.1 -5.4,0 -8.3,-5.9 -8.3,-10.6 0,-6.8 4,-12.1 15.1,-12.1 8.1,0 16,1.6 24.1,1.6 5.7,0 13.6,-1.6 21.7,-1.6 7.6,-0.2 8,6 9.4,11.9 l 13,55.1 13.5,-52.6" id="path19"/>
		<path class="st0" d="m 735.9,199.9 c 0,7.3 -7,10.6 -13.6,10.6 -7.8,0 -14.6,-5.5 -14.6,-13.6 0,-16.4 22.5,-19.1 34.6,-19.1 7.9,0 18.7,0.8 25.7,4.8 9.4,5.6 10.2,14.6 10.2,24.4 v 29.9 c 0,2.1 -0.5,7.3 2.7,7.3 1.3,0 2.5,-0.1 3.8,-0.1 5.1,0 7.9,4.3 7.9,8.9 0,8.9 -8.9,12.2 -16.4,12.2 -7.3,0 -15.4,-2.7 -18.1,-10.2 -7.5,7.1 -17.1,10.2 -27.1,10.2 -14.4,0 -28.3,-7.6 -28.3,-23.8 0,-37.6 49.2,-18.1 49.2,-39.1 0,-6 -5.6,-8.9 -10.8,-8.9 -2.7,0 -5.2,0.5 -5.2,3.6 z m 16,26.8 c -4.6,4.9 -23,2.5 -23,11 0,5.5 4.5,7.4 9.1,7.4 9.3,0 13.9,-5.5 13.9,-14.9 v -3.5" id="path20"/>
		<path class="st0" d="m 813.3,205.9 c -1.4,-2.1 -4.8,-6.8 -7.2,-6.8 -1.4,0 -3,0.6 -4.4,1.1 -4.6,0 -6.2,-4.3 -6.2,-9.1 0,-6 2.4,-11 8.4,-11 4,0.2 8.2,1.6 12.5,1.6 4.8,0 9.4,-1.4 14.3,-1.6 5,0 8.2,3.3 8.2,9.1 0,5.4 -4.1,5.7 -4.1,8.3 0,2.2 3.7,8.1 4.6,9.7 l 2.2,4.1 2.4,-4.1 c 1,-1.6 4.3,-6.4 4.3,-8.6 0,-3.2 -5.2,-1.3 -5.2,-9.1 0,-5.9 2.7,-9.4 6.5,-9.4 4,0.2 8.2,1.6 12.6,1.6 4.7,0 9.3,-1.4 14.3,-1.6 5.7,0 8.1,4.9 8.1,11 0,4.8 -1.4,9.1 -6,9.1 -1.6,-0.8 -3.2,-1.3 -4.6,-1.3 -2.4,0 -3,1.8 -4.3,3.8 l -10.8,16.7 10.8,18.1 c 1.3,1.9 3.6,6 5.9,6 1.1,0 2.5,-0.6 4,-0.5 4.6,0 6,4.3 6,9 0,6 -2.4,11 -8.1,11 -4.9,-0.2 -9.5,-1.6 -14.3,-1.6 -4.3,0 -8.6,1.4 -12.5,1.6 -4.8,-0.3 -8.3,-4.6 -8.3,-10 0,-2.7 0.6,-3.6 2.4,-5.2 1,-0.8 2.9,-2.2 2.9,-3.8 0,-1.9 -3.5,-7.6 -4.4,-9 l -2.4,-4.1 -4.6,7.5 c -1,1.4 -3.2,4.6 -3.2,6.3 0,3.8 5.4,1.7 5.4,8.3 0,6.2 -3.7,9.7 -8.9,10.1 -5,-0.2 -9.5,-1.6 -14.3,-1.6 -4.3,0 -8.6,1.4 -12.5,1.6 -5.6,0 -7.9,-4.9 -7.9,-11 0,-4.8 1.4,-9 6,-9 1.8,0 3.3,0.6 5.1,0.6 2.7,0 4.6,-3.3 6,-5.7 l 2.7,-4 8.6,-13.7 -10,-14.4" id="path21"/>
		<path class="st0" d="m 893.8,188.5 c 0,-4.4 3.3,-7.8 7.6,-7.8 4.3,0 7.6,3.4 7.6,7.8 0,4.5 -3.3,8 -7.6,8 -4.3,-0.1 -7.6,-3.5 -7.6,-8 m -1.7,0 c 0,5.3 4.3,9.3 9.3,9.3 5.1,0 9.3,-4 9.3,-9.3 0,-5.2 -4.2,-9.2 -9.3,-9.2 -5.1,0 -9.3,3.9 -9.3,9.2 m 5.7,5.4 h 1.7 v -4.6 h 1.8 l 2.9,4.6 h 1.8 l -3.1,-4.8 c 1.6,-0.2 2.9,-1 2.9,-2.9 0,-2.1 -1.2,-3.1 -3.8,-3.1 h -4.2 c 0,0 0,10.8 0,10.8 z m 1.7,-9.4 h 2.2 c 1.1,0 2.4,0.2 2.4,1.7 0,1.7 -1.4,1.8 -2.9,1.8 h -1.7 z" id="path22"/>
	</g>
</g>
</svg>