<svg width="256" height="256" viewBox="0 0 256 256" fill="none" xmlns="http://www.w3.org/2000/svg">
<rect width="256" height="256" fill="white"/>
<g clip-path="url(#clip0_39_69)">
<path d="M182.807 5C161.094 5 142.183 12.7045 128.175 20.409C113.817 12.7045 96.3064 5 73.1929 5C28.3666 5 0 33.3666 0 83.7962C0 144.031 58.1341 202.866 127.825 251.194C197.866 204.267 255.65 145.082 255.65 83.7962C256 33.3666 226.583 5 182.807 5Z" fill="#CCCCCC"/>
<path d="M6.65393 84.8467C6.65393 146.133 72.1423 203.917 127.125 242.439C143.584 231.583 160.044 218.275 175.103 205.317C101.56 144.031 31.8687 87.9986 7.70455 68.3871C7.70455 72.9398 6.65393 78.1928 6.65393 84.8467Z" fill="url(#paint0_linear_39_69)"/>
<path d="M243.743 113.214C190.161 69.4379 158.293 46.3244 123.272 25.6622C113.466 20.059 94.9055 11.3038 73.8932 11.3038C54.2817 11.3038 36.7714 17.9577 24.5143 29.8647C16.8097 37.5692 11.5567 47.375 9.10522 59.2819C36.4212 78.8934 112.066 132.475 187.36 192.71C213.275 168.896 233.937 141.58 243.743 113.214Z" fill="url(#paint1_linear_39_69)"/>
<path d="M229.734 30.2149C217.827 18.308 201.368 11.6541 181.756 11.6541C161.094 11.6541 145.685 18.308 133.778 24.6116C154.09 36.8688 198.916 61.7334 246.194 96.7539C247.245 92.5515 247.245 86.9482 247.245 82.3955C248.295 60.6828 241.641 42.1219 229.734 30.2149Z" fill="url(#paint2_linear_39_69)"/>
</g>
<defs>
<linearGradient id="paint0_linear_39_69" x1="7.04406" y1="155.396" x2="176.112" y2="155.396" gradientUnits="userSpaceOnUse">
<stop stop-color="#3656CC"/>
<stop offset="0.35" stop-color="#304CB2"/>
<stop offset="0.72" stop-color="#283B80"/>
</linearGradient>
<linearGradient id="paint1_linear_39_69" x1="31.124" y1="20.9839" x2="222.118" y2="154.72" gradientUnits="userSpaceOnUse">
<stop offset="0.3" stop-color="#E61C23"/>
<stop offset="0.8" stop-color="#C3161C"/>
</linearGradient>
<linearGradient id="paint2_linear_39_69" x1="149.189" y1="4.17962" x2="258.39" y2="80.6431" gradientUnits="userSpaceOnUse">
<stop stop-color="#FDBC11"/>
<stop offset="0.25" stop-color="#FCB415"/>
<stop offset="0.8" stop-color="#F89E1C"/>
</linearGradient>
<clipPath id="clip0_39_69">
<rect width="256" height="246.194" fill="white" transform="translate(0 5)"/>
</clipPath>
</defs>
</svg>
