<svg width="256" height="256" viewBox="0 0 256 256" fill="none" xmlns="http://www.w3.org/2000/svg">
<path fill-rule="evenodd" clip-rule="evenodd" d="M0 0V59.6589L127.142 133.067L254.289 59.6589V0H0Z" fill="#ACE4D6"/>
<path fill-rule="evenodd" clip-rule="evenodd" d="M0 206.474V254.289H254.289V206.474L127.142 133.065L0 206.474Z" fill="#373B3F"/>
<path fill-rule="evenodd" clip-rule="evenodd" d="M127.142 133.068L254.289 206.472V59.6633L127.142 133.068Z" fill="#52595F"/>
<path fill-rule="evenodd" clip-rule="evenodd" d="M0 206.472L127.142 133.067L0 59.6589V206.472Z" fill="#1CC29F"/>
<path fill-rule="evenodd" clip-rule="evenodd" d="M44.7366 85.4865L127.145 37.9099L209.555 85.4865V213.228H44.7366V85.4865Z" fill="white"/>
<path fill-rule="evenodd" clip-rule="evenodd" d="M44.7366 86.412L127.145 38.8332L209.555 86.412V214.154H44.7366V86.412Z" stroke="white" stroke-width="10.368"/>
<path fill-rule="evenodd" clip-rule="evenodd" d="M106.658 145.627L126.641 134.091L43.4806 86.0773V133.492C49.7121 130.133 57.565 128.385 66.5556 128.385C86.1297 128.385 98.5184 136.7 106.658 145.627ZM69.9667 211.808C78.2966 211.808 84.5784 209.351 84.5784 203.069C84.5784 196.654 76.5221 194.195 66.5534 191.737C59.136 189.836 50.618 187.93 43.4806 184.333V196.516C49.4889 206.209 59.4554 211.808 69.9667 211.808Z" fill="#1CC29F"/>
<path fill-rule="evenodd" clip-rule="evenodd" d="M209.804 182.104V86.0773L126.641 134.091L209.804 182.104Z" fill="#52595F"/>
<path fill-rule="evenodd" clip-rule="evenodd" d="M209.802 86.0772L126.643 38.0652L43.4806 86.0772L126.641 134.089L209.802 86.0772Z" fill="#ACE4D6"/>
<path fill-rule="evenodd" clip-rule="evenodd" d="M126.641 134.089L106.658 145.627L85.237 157.996C79.7648 153.642 72.8024 150.504 66.4199 150.504C58.6349 150.504 54.6746 153.097 54.6746 157.878C54.6746 163.407 60.0921 166.043 67.5971 168.179C69.1725 168.627 70.8354 169.054 72.5639 169.483C89.0836 173.443 111.205 178.493 111.205 201.157C111.205 205.916 110.2 210.657 108.006 214.985H209.802V182.104L126.641 134.089Z" fill="#373B3F"/>
<path fill-rule="evenodd" clip-rule="evenodd" d="M72.5617 169.483C70.8332 169.056 69.1725 168.63 67.5971 168.179C60.0921 166.043 54.6746 163.409 54.6746 157.878C54.6746 153.097 58.6349 150.504 66.4178 150.504C72.8024 150.504 79.7648 153.644 85.237 157.996L106.658 145.627C98.5184 136.7 86.1297 128.385 66.5534 128.385C57.5628 128.385 49.7121 130.133 43.4806 133.492V184.335C50.618 187.93 59.1338 189.836 66.5534 191.737C76.5199 194.195 84.5784 196.652 84.5784 203.071C84.5784 209.351 78.2966 211.808 69.9667 211.808C59.4554 211.808 49.4867 206.211 43.4806 196.516V214.983H108.006C110.2 210.657 111.202 205.916 111.202 201.157C111.202 178.493 89.0836 173.441 72.5617 169.483Z" fill="white"/>
</svg>
