<svg width="256" height="256" viewBox="0 0 256 256" fill="none" xmlns="http://www.w3.org/2000/svg">
<g clip-path="url(#clip0_38_19)">
<path d="M249.819 127.377C249.819 193.513 194.845 247.189 127.109 247.189C59.3728 247.189 4.39832 193.513 4.39832 127.377C4.39832 61.2411 59.3728 7.56555 127.109 7.56555C194.845 7.56555 249.819 61.2411 249.819 127.377Z" fill="white"/>
<path d="M128 0C57.299 0 0 57.3064 0 128C0 198.696 57.2987 256 128 256C198.702 256 256 198.696 256 128C256 57.3064 198.701 0 128 0ZM128 42.6668C175.134 42.6668 213.334 80.8763 213.334 128C213.334 175.124 175.135 213.334 128 213.334C80.866 213.334 42.6668 175.124 42.6668 128C42.6668 80.8759 80.8657 42.6668 128 42.6668ZM128 85.3332C104.433 85.3332 85.3336 104.438 85.3336 128C85.3336 151.564 104.433 170.666 128 170.666C151.567 170.666 170.667 151.565 170.667 128C170.666 104.438 151.567 85.3332 128 85.3332ZM233.412 225.882C229.321 225.882 225.882 229.1 225.882 233.412C225.882 237.772 229.32 240.942 233.412 240.942C237.453 240.942 240.941 237.772 240.941 233.412C240.941 229.1 237.453 225.882 233.412 225.882ZM233.412 227.137C236.775 227.137 239.435 229.843 239.435 233.412C239.435 237.036 236.775 239.687 233.412 239.687C229.999 239.687 227.388 237.036 227.388 233.412C227.388 229.843 229.999 227.137 233.412 227.137ZM230.526 229.082V237.741H231.843V233.977H233.349L235.608 237.741H237.051L234.604 233.914C235.834 233.744 236.863 233.083 236.863 231.53C236.863 229.808 235.859 229.082 233.852 229.082H230.526ZM231.843 230.212H233.6C234.504 230.212 235.483 230.393 235.483 231.467C235.483 232.799 234.517 232.847 233.412 232.847H231.844V230.212H231.843Z" fill="#CC0000"/>
</g>
<defs>
<clipPath id="clip0_38_19">
<rect width="256" height="256" fill="white"/>
</clipPath>
</defs>
</svg>
