<svg xmlns="http://www.w3.org/2000/svg" xmlns:xlink="http://www.w3.org/1999/xlink" version="1.1" id="Layer_1" x="0px" y="0px" viewBox="0 0 235.3 55" style="enable-background:new 0 0 235.3 55;" xml:space="preserve">
<style type="text/css">
	.st0{fill:#363636;}
	.st1{fill:#008575;}
	.st2{fill:#333333;}
</style>
<g>
	<g>
		<path class="st0" d="M234.3,22.2c0,0.7-0.2,1.3-0.7,1.8c-0.5,0.5-1.1,0.8-1.7,0.8c-0.7,0-1.2-0.2-1.7-0.8    c-0.5-0.5-0.7-1.1-0.7-1.8c0-0.7,0.2-1.3,0.7-1.8c0.5-0.5,1.1-0.8,1.7-0.8c0.7,0,1.2,0.2,1.7,0.8C234,20.9,234.3,21.5,234.3,22.2z     M233.9,22.2c0-0.6-0.2-1.1-0.6-1.5c-0.4-0.4-0.9-0.6-1.4-0.6c-0.6,0-1,0.2-1.4,0.6c-0.4,0.4-0.6,0.9-0.6,1.5    c0,0.6,0.2,1.1,0.6,1.5s0.9,0.6,1.4,0.6c0.5,0,1-0.2,1.4-0.6C233.7,23.3,233.9,22.8,233.9,22.2z M233.1,23.7h-0.6l-0.5-1.2h-0.7    v1.2h-0.6v-2.9h1.3c0.4,0,0.6,0.1,0.8,0.2c0.2,0.2,0.3,0.4,0.3,0.6c0,0.4-0.2,0.6-0.5,0.8L233.1,23.7z M231.3,22h0.6    c0.4,0,0.5-0.1,0.5-0.4c0-0.3-0.2-0.4-0.5-0.4h-0.7L231.3,22L231.3,22z"/>
		<path class="st0" d="M59.7,39v2.6c-1.1,0.1-2.1,0.2-2.9,0.2c-3.9,0-5.9-2.1-5.9-6.3V22.8h-3.6v-2.5H51l0.1-5.3l2.9-0.3v5.5h7.2    v2.5H54v13.2c0,2.2,1.1,3.2,3.2,3.2C58,39.2,58.8,39.1,59.7,39z"/>
		<path class="st0" d="M79.1,41.2h-3.1V28.5c0-1.5-0.1-2.6-0.3-3.4c-0.2-0.8-0.6-1.4-1.3-1.9c-0.7-0.5-1.5-0.8-2.3-0.8    c-1.6,0-3,0.7-4.1,2.1c-1.1,1.4-1.6,3.2-1.6,5.5v11.3h-3.1V12.9h3.1v11.2c1.4-3,3.5-4.5,6.1-4.5c1.2,0,2.3,0.2,3.2,0.7    c0.9,0.5,1.6,1.1,2.1,1.9c0.5,0.8,0.8,1.6,1,2.3c0.2,0.8,0.3,2.1,0.3,3.9V41.2z"/>
		<path class="st0" d="M85.9,41.2h-3.1V20.2h2.8v4.9c1-2.3,1.9-3.8,2.9-4.5c1-0.7,2-1,3-1c0.3,0,0.7,0,1.2,0.1v3.1h-0.6    c-1.7,0-3.2,0.7-4.3,2c-1.1,1.3-1.8,3.1-1.9,5.3V41.2z"/>
		<path class="st0" d="M98.8,14.2v3.6h-3.4v-3.6H98.8z M98.7,20.2v20.9h-3.1V20.2H98.7z"/>
		<path class="st0" d="M115.4,20.2v2.5h-6.8v18.4h-3.1V22.8h-4.3v-2.5h4.3c0-3.4,0.7-5.5,1.9-6.5c1.2-1,2.7-1.5,4.4-1.5    c0.8,0,1.8,0.1,2.9,0.3v2.6c-0.7-0.2-1.3-0.3-1.9-0.3c-1.4,0-2.4,0.3-3,0.9c-0.7,0.6-1,1.8-1,3.5v0.8H115.4z"/>
		<path class="st0" d="M127.6,39v2.6c-1.1,0.1-2.1,0.2-2.9,0.2c-3.9,0-5.9-2.1-5.9-6.3V22.8h-3.6v-2.5h3.6L119,15l2.9-0.3v5.5h6.9    v2.5H122v13.2c0,2.2,1.1,3.2,3.3,3.2C125.9,39.2,126.7,39.1,127.6,39z"/>
		<path class="st0" d="M132.8,41.2h-2.1V12.9h4.6v10.2c0.9-1.6,1.7-2.6,2.6-3.1c0.9-0.5,1.9-0.8,3.1-0.8c2.2,0,4.1,1,5.5,2.9    c1.5,1.9,2.2,4.7,2.2,8.1c0,3.1-0.7,5.8-2.2,8c-1.4,2.2-3.5,3.3-6.2,3.3s-4.8-1.3-6.3-3.9L132.8,41.2z M135.3,32.2    c0,1.9,0.4,3.2,1.2,4.1c0.8,0.9,1.8,1.3,3.1,1.3c1.2,0,2.2-0.5,3-1.5c0.8-1,1.2-3,1.3-6c0-2.2-0.4-3.9-1.1-5    c-0.7-1.2-1.8-1.8-3.1-1.8c-1.2,0-2.3,0.5-3.1,1.5c-0.8,1-1.2,2.4-1.2,4.3L135.3,32.2z"/>
		<path class="st0" d="M160.1,41.6c-3,0-5.3-1.1-6.9-3.3c-1.6-2.2-2.4-4.8-2.4-7.7c0-3.1,0.9-5.7,2.6-7.7c1.7-2.1,4.1-3.1,6.9-3.1    c2.7,0,5,1,6.7,3c1.7,2,2.6,4.6,2.6,7.8c0,3.3-0.9,6-2.7,8C165.2,40.6,162.9,41.6,160.1,41.6z M160.2,37.7c3.1,0,4.6-2.4,4.6-7.1    c0-2.2-0.4-3.8-1.1-5.1c-0.8-1.2-1.9-1.9-3.4-1.9c-1.6,0-2.7,0.6-3.5,1.9c-0.8,1.3-1.1,3-1.1,5.1c0,2.3,0.4,4,1.2,5.2    C157.7,37.1,158.9,37.7,160.2,37.7z"/>
		<path class="st0" d="M181.1,41.6c-3,0-5.3-1.1-6.9-3.3c-1.6-2.2-2.4-4.8-2.4-7.7c0-3.1,0.9-5.7,2.6-7.7c1.7-2.1,4.1-3.1,6.9-3.1    c2.7,0,4.9,1,6.7,3c1.8,2,2.6,4.6,2.6,7.8c0,3.3-0.9,6-2.7,8S183.9,41.6,181.1,41.6z M181.3,37.7c3.1,0,4.6-2.4,4.6-7.1    c0-2.2-0.4-3.8-1.1-5.1c-0.7-1.2-1.9-1.9-3.4-1.9c-1.6,0-2.7,0.6-3.5,1.9c-0.8,1.3-1.1,3-1.1,5.1c0,2.3,0.4,4,1.2,5.2    C178.8,37.1,179.9,37.7,181.3,37.7z"/>
		<path class="st0" d="M211.8,41.2H207l-5.2-10.7l-4.5,5.2v5.5H193V12.9h4.4v17.5c0.4-0.5,0.7-0.9,0.9-1.2l8-9h4.9l-6.1,6.9    L211.8,41.2z"/>
		<path class="st0" d="M211.7,36.4l4.3-0.8c0.7,1.7,2.1,2.5,4.3,2.5c2.8,0,4.2-0.8,4.2-2.6c0-0.6-0.2-1-0.7-1.4    c-0.4-0.4-1-0.6-1.6-0.7l-3.7-0.7c-4.1-0.8-6.1-2.9-6.1-6.2c0-1.8,0.7-3.4,1.9-4.7c1.3-1.3,3.2-1.9,5.8-1.9c4.3,0,6.9,1.6,7.8,4.9    l-4.1,0.8c-0.4-1.6-1.6-2.4-3.7-2.4c-2.4,0-3.7,0.8-3.7,2.4c0,1.1,1,1.8,3,2.3l4.4,0.9c3.4,0.7,5.1,2.7,5.1,6c0,2.3-0.9,4-2.6,5.2    c-1.7,1.1-3.8,1.7-6.2,1.7c-2.1,0-3.9-0.4-5.5-1.3C213.2,39.4,212.2,38.1,211.7,36.4z"/>
		<path class="st1" d="M12.8,17.3l2-12c0.1-0.4-0.2-0.8-0.6-0.9L6.7,3.1c0,0-0.1,0-0.1,0.1L4.5,15.6L12.8,17.3z"/>
		<path class="st1" d="M4.3,17.3L0,42.5c0,0,0,0.1,0.1,0.1l7.5,1.4C8,44,8.3,43.7,8.4,43.3l4.2-24.6L4.3,17.3z"/>
		<path class="st1" d="M39.2,42.4l-3.4-29.9l-6.4,0.8l0.6,4.8l2.9-0.3l0.3,2.2l-2.9,0.3l2.7,23.6l5.7-0.7    C38.9,43.2,39.2,42.8,39.2,42.4z"/>
		<path class="st1" d="M14.7,33.7l11.9,0.2v-1.6H14.7V33.7z"/>
		<path class="st1" d="M26.6,36.8v-1.6l-11.9,0v1.5L26.6,36.8z"/>
		<path class="st1" d="M26.6,43.9v-5.5L14.7,38v5.9H26.6z"/>
		<path class="st1" d="M26.6,0v31l-11.9,0l0.1-30.7L26.6,0z"/>
	</g>
</g>
<path class="st2" d="M105.9,52.4c0,0.1,0,0.1,0,0.2c0,0.1-0.1,0.1-0.2,0.1h-1.5c-0.1,0-0.2-0.1-0.2-0.2l-1.4-3.5  c0-0.1-0.1-0.2-0.3-0.2h-1.4c-0.1,0-0.1,0-0.1,0c0,0,0,0.1,0,0.1v3.5c0,0.2-0.1,0.3-0.3,0.3h-1.3c-0.1,0-0.1,0-0.2,0  c0,0,0-0.1,0-0.2V44c0-0.1,0.1-0.2,0.2-0.2h3.6c1,0,1.8,0.2,2.4,0.6c0.6,0.4,0.9,1,0.9,1.8c0,0.4-0.1,0.8-0.2,1.1  c-0.2,0.3-0.4,0.6-0.6,0.8c-0.3,0.2-0.5,0.4-0.8,0.5c-0.1,0-0.1,0.1,0,0.2L105.9,52.4z M102.5,47.6c0.5,0,1-0.1,1.2-0.3  c0.3-0.2,0.4-0.5,0.4-1c0-0.4-0.1-0.8-0.4-1c-0.3-0.2-0.6-0.3-1.1-0.3h-1.7c-0.1,0-0.2,0.1-0.2,0.2v2.3c0,0.1,0.1,0.2,0.2,0.2H102.5  z"/>
<path class="st2" d="M108.2,50c0,0.3,0.1,0.6,0.2,0.9c0.2,0.3,0.4,0.5,0.6,0.6c0.3,0.1,0.6,0.2,0.9,0.2c0.3,0,0.6-0.1,0.9-0.2  c0.3-0.1,0.5-0.4,0.8-0.7c0,0,0.1-0.1,0.1-0.1c0,0,0.1,0,0.1,0l0.7,0.3c0.1,0,0.1,0.1,0,0.2c-0.2,0.4-0.5,0.6-0.8,0.9  c-0.3,0.2-0.6,0.4-0.9,0.5c-0.3,0.1-0.7,0.1-1.1,0.1c-0.6,0-1.2-0.1-1.6-0.4s-0.9-0.6-1.1-1.1c-0.3-0.5-0.4-1-0.4-1.7  c0-0.7,0.1-1.3,0.4-1.8c0.3-0.5,0.7-0.9,1.2-1.2c0.5-0.3,1-0.4,1.6-0.4c0.6,0,1.1,0.1,1.6,0.4c0.5,0.3,0.8,0.6,1.1,1.1  c0.3,0.5,0.4,1.1,0.4,1.8c0,0.1,0,0.1,0,0.2c0,0-0.1,0.1-0.2,0.1h-4.2c0,0-0.1,0-0.1,0C108.2,49.9,108.2,49.9,108.2,50z M111,48.9  c0.1,0,0.1,0,0.2,0c0,0,0-0.1,0-0.1c0-0.2-0.1-0.5-0.2-0.7c-0.1-0.2-0.3-0.4-0.5-0.6c-0.2-0.2-0.5-0.2-0.8-0.2  c-0.3,0-0.6,0.1-0.8,0.2c-0.2,0.2-0.4,0.4-0.6,0.6c-0.1,0.3-0.2,0.5-0.2,0.9H111z"/>
<path class="st2" d="M117.4,52c-0.3,0.2-0.6,0.4-0.9,0.6c-0.3,0.1-0.7,0.2-1.1,0.2c-0.6,0-1.1-0.2-1.5-0.5c-0.3-0.3-0.5-0.8-0.5-1.3  c0-0.4,0.1-0.8,0.4-1.1c0.3-0.3,0.6-0.6,1.2-0.8c0.5-0.2,1.1-0.3,1.8-0.3l0.6,0c0,0,0.1,0,0.1,0c0,0,0.1-0.1,0.1-0.1v-0.3  c0-0.4-0.1-0.6-0.3-0.8c-0.2-0.2-0.5-0.3-0.9-0.3c-0.3,0-0.5,0.1-0.8,0.2c-0.2,0.1-0.4,0.3-0.6,0.6c0,0-0.1,0.1-0.1,0.1  c0,0-0.1,0-0.1,0l-1-0.3c0,0-0.1,0-0.1-0.1c0,0,0-0.1,0-0.2c0.2-0.5,0.6-0.8,1-1c0.5-0.2,1.1-0.3,1.8-0.3c0.6,0,1.1,0.1,1.5,0.3  c0.4,0.2,0.7,0.4,0.8,0.7c0.2,0.3,0.3,0.6,0.3,1.1v4.2c0,0.1,0,0.2,0,0.2c0,0-0.1,0-0.2,0h-1c-0.1,0-0.1,0-0.2-0.1s-0.1-0.1-0.1-0.2  l0-0.4C117.6,51.9,117.5,51.9,117.4,52z M117.6,49.8c0-0.1-0.1-0.2-0.2-0.2l-0.5,0c-0.3,0-0.5,0.1-0.7,0.1c-0.2,0.1-0.4,0.1-0.6,0.2  c-0.2,0.1-0.3,0.2-0.4,0.4c-0.1,0.1-0.2,0.3-0.2,0.5c0,0.3,0.1,0.5,0.3,0.6c0.2,0.2,0.5,0.2,0.8,0.2c0.2,0,0.4,0,0.6-0.1  c0.2-0.1,0.3-0.2,0.5-0.3c0.1-0.1,0.2-0.2,0.3-0.3c0.1-0.1,0.1-0.3,0.1-0.4V49.8z"/>
<path class="st2" d="M125.1,52.7c-0.1,0-0.1,0-0.2,0c0,0-0.1-0.1-0.1-0.2v-0.4c0-0.1,0-0.1,0-0.1s-0.1,0-0.1,0  c-0.1,0.1-0.3,0.2-0.4,0.3c-0.2,0.1-0.4,0.2-0.6,0.3c-0.2,0.1-0.5,0.1-0.8,0.1c-0.5,0-0.9-0.1-1.3-0.4c-0.4-0.2-0.7-0.6-0.9-1.1  s-0.3-1.1-0.3-1.8c0-0.7,0.1-1.3,0.3-1.8c0.2-0.5,0.6-0.9,1-1.2c0.4-0.3,0.9-0.4,1.4-0.4c0.4,0,0.7,0.1,0.9,0.2  c0.3,0.1,0.5,0.3,0.7,0.5c0.1,0,0.1,0.1,0.2,0.1c0,0,0-0.1,0-0.2V44c0-0.1,0.1-0.2,0.2-0.2h1.2c0.1,0,0.2,0.1,0.2,0.2v8.5  c0,0.1,0,0.1-0.1,0.2c0,0-0.1,0-0.2,0H125.1z M124.8,47.9c-0.2-0.2-0.4-0.4-0.6-0.5c-0.2-0.1-0.4-0.2-0.7-0.2  c-0.3,0-0.6,0.1-0.8,0.3c-0.2,0.2-0.4,0.4-0.6,0.8c-0.1,0.3-0.2,0.8-0.2,1.3c0,0.5,0.1,1,0.2,1.3c0.1,0.3,0.3,0.6,0.6,0.7  c0.2,0.2,0.5,0.2,0.8,0.2c0.3,0,0.5-0.1,0.7-0.2c0.2-0.1,0.4-0.3,0.5-0.5c0.1-0.2,0.2-0.4,0.2-0.6V47.9z"/>
<path class="st2" d="M130.6,52.7c-0.1,0-0.2-0.1-0.2-0.2v-5.9c0-0.1,0.1-0.2,0.2-0.2h1.2c0.1,0,0.2,0.1,0.2,0.2v0.6c0,0,0,0.1,0,0.1  c0,0,0.1,0,0.1,0c0.2-0.2,0.4-0.4,0.6-0.5c0.2-0.1,0.4-0.3,0.7-0.3c0.2-0.1,0.5-0.1,0.7-0.1c0.4,0,0.8,0.1,1.1,0.3  c0.3,0.2,0.5,0.5,0.6,0.8c0,0,0,0,0.1,0c0,0,0.1,0,0.1-0.1c0.2-0.2,0.4-0.4,0.7-0.6c0.2-0.2,0.5-0.3,0.7-0.4  c0.2-0.1,0.5-0.1,0.7-0.1c0.6,0,1,0.2,1.3,0.5c0.3,0.3,0.5,0.8,0.5,1.4v4.3c0,0.2-0.1,0.3-0.3,0.3h-1.1c-0.1,0-0.1,0-0.2,0  c0,0,0-0.1,0-0.2v-4.1c0-0.3-0.1-0.6-0.2-0.7c-0.2-0.2-0.4-0.3-0.7-0.3c-0.2,0-0.4,0-0.5,0.1c-0.2,0.1-0.3,0.1-0.5,0.3  s-0.3,0.2-0.4,0.3c-0.1,0.1-0.1,0.1-0.1,0.2c0,0,0,0.1,0,0.2v4.1c0,0.2-0.1,0.3-0.3,0.3h-1.1c-0.1,0-0.1,0-0.2,0c0,0,0-0.1,0-0.2  v-4.1c0-0.3-0.1-0.6-0.2-0.7c-0.2-0.2-0.4-0.3-0.7-0.3c-0.3,0-0.5,0.1-0.8,0.2c-0.2,0.1-0.5,0.3-0.7,0.6v4.3c0,0.2-0.1,0.2-0.3,0.2  H130.6z"/>
<path class="st2" d="M144.2,52.8c-0.6,0-1.2-0.1-1.6-0.4c-0.5-0.3-0.8-0.7-1.1-1.2c-0.3-0.5-0.4-1.1-0.4-1.7c0-0.7,0.1-1.2,0.4-1.7  c0.3-0.5,0.7-0.9,1.1-1.2c0.5-0.3,1-0.4,1.6-0.4c0.6,0,1.2,0.1,1.7,0.4c0.5,0.3,0.8,0.7,1.1,1.2c0.3,0.5,0.4,1.1,0.4,1.7  c0,0.6-0.1,1.2-0.4,1.7c-0.3,0.5-0.6,0.9-1.1,1.2C145.4,52.7,144.8,52.8,144.2,52.8z M144.2,51.8c0.3,0,0.6-0.1,0.9-0.3  c0.2-0.2,0.4-0.4,0.5-0.8c0.1-0.3,0.2-0.7,0.2-1.2c0-0.5-0.1-0.9-0.2-1.2c-0.1-0.3-0.3-0.6-0.5-0.8c-0.2-0.2-0.5-0.3-0.9-0.3  c-0.3,0-0.6,0.1-0.9,0.3c-0.2,0.2-0.4,0.4-0.6,0.8c-0.1,0.3-0.2,0.7-0.2,1.2c0,0.5,0.1,0.9,0.2,1.2c0.1,0.3,0.3,0.6,0.6,0.8  C143.6,51.7,143.9,51.8,144.2,51.8z"/>
<path class="st2" d="M148.8,52.7c-0.1,0-0.1,0-0.2,0c0,0,0-0.1,0-0.2v-5.9c0-0.1,0.1-0.2,0.2-0.2h1.2c0.1,0,0.2,0.1,0.2,0.2v0.7  c0,0,0,0.1,0,0.1c0,0,0.1,0,0.1-0.1c0.2-0.2,0.4-0.4,0.6-0.6c0.2-0.2,0.4-0.3,0.6-0.4c0.2-0.1,0.4-0.1,0.6-0.1  c0.3,0,0.4,0.1,0.4,0.2v1.2c0,0.1-0.1,0.2-0.2,0.1c-0.1,0-0.2-0.1-0.4-0.1c-0.1,0-0.2,0-0.4,0c-0.2,0-0.3,0-0.5,0.1  c-0.2,0.1-0.3,0.2-0.5,0.3c-0.1,0.1-0.3,0.2-0.3,0.4s-0.1,0.3-0.1,0.4v3.7c0,0.2-0.1,0.2-0.3,0.2H148.8z"/>
<path class="st2" d="M154.6,50c0,0.3,0.1,0.6,0.2,0.9c0.2,0.3,0.4,0.5,0.6,0.6c0.3,0.1,0.6,0.2,0.9,0.2c0.3,0,0.6-0.1,0.9-0.2  c0.3-0.1,0.5-0.4,0.8-0.7c0,0,0.1-0.1,0.1-0.1c0,0,0.1,0,0.1,0l0.7,0.3c0.1,0,0.1,0.1,0,0.2c-0.2,0.4-0.5,0.6-0.8,0.9  c-0.3,0.2-0.6,0.4-0.9,0.5c-0.3,0.1-0.7,0.1-1.1,0.1c-0.6,0-1.2-0.1-1.6-0.4c-0.5-0.3-0.9-0.6-1.1-1.1c-0.3-0.5-0.4-1-0.4-1.7  c0-0.7,0.1-1.3,0.4-1.8c0.3-0.5,0.7-0.9,1.2-1.2c0.5-0.3,1-0.4,1.6-0.4c0.6,0,1.1,0.1,1.6,0.4c0.5,0.3,0.8,0.6,1.1,1.1  c0.3,0.5,0.4,1.1,0.4,1.8c0,0.1,0,0.1,0,0.2c0,0-0.1,0.1-0.2,0.1h-4.2c0,0-0.1,0-0.1,0C154.6,49.9,154.6,49.9,154.6,50z M157.4,48.9  c0.1,0,0.1,0,0.2,0c0,0,0-0.1,0-0.1c0-0.2-0.1-0.5-0.2-0.7c-0.1-0.2-0.3-0.4-0.5-0.6c-0.2-0.2-0.5-0.2-0.8-0.2  c-0.3,0-0.6,0.1-0.8,0.2c-0.2,0.2-0.4,0.4-0.6,0.6c-0.1,0.3-0.2,0.5-0.2,0.9H157.4z"/>
<path class="st2" d="M161.8,52.4c0,0.2-0.1,0.3-0.3,0.3h-1.2c-0.2,0-0.2-0.1-0.2-0.2v-1.4c0-0.1,0.1-0.2,0.2-0.2h1.4  c0.1,0,0.2,0.1,0.2,0.2V52.4z"/>
<path class="st2" d="M170.9,45.7c-0.2-0.2-0.4-0.4-0.7-0.6s-0.7-0.2-1.2-0.2c-0.5,0-0.9,0.1-1.2,0.3s-0.4,0.5-0.4,0.8  c0,0.1,0,0.2,0.1,0.4c0.1,0.1,0.2,0.3,0.3,0.4c0.2,0.1,0.4,0.2,0.7,0.3l1.8,0.6c0.7,0.2,1.3,0.5,1.6,1c0.3,0.4,0.5,0.9,0.5,1.5  c0,0.5-0.1,1-0.4,1.4s-0.7,0.7-1.2,0.9c-0.5,0.2-1.1,0.3-1.8,0.3c-0.5,0-1-0.1-1.5-0.2c-0.4-0.1-0.8-0.3-1.2-0.5  c-0.3-0.2-0.6-0.5-0.8-0.8c0-0.1-0.1-0.1,0-0.2c0-0.1,0.1-0.1,0.1-0.2l0.8-0.5c0.1-0.1,0.2-0.1,0.2-0.1c0.1,0,0.1,0,0.1,0.1  c0.2,0.3,0.4,0.5,0.6,0.6c0.2,0.2,0.4,0.3,0.7,0.4c0.3,0.1,0.6,0.1,0.9,0.1c0.6,0,1-0.1,1.3-0.3c0.3-0.2,0.5-0.5,0.5-0.9  c0-0.2,0-0.3-0.1-0.4c-0.1-0.1-0.2-0.3-0.3-0.4c-0.2-0.1-0.4-0.2-0.7-0.3l-1.8-0.6c-0.5-0.1-0.8-0.3-1.2-0.6  c-0.3-0.2-0.5-0.5-0.7-0.9c-0.2-0.3-0.2-0.7-0.2-1c0-0.5,0.1-1,0.4-1.4c0.3-0.4,0.7-0.7,1.2-0.9c0.5-0.2,1.1-0.3,1.7-0.3  c0.4,0,0.8,0.1,1.2,0.2c0.4,0.1,0.7,0.2,1,0.4c0.3,0.2,0.6,0.4,0.8,0.7c0,0,0.1,0.1,0.1,0.1c0,0,0,0.1-0.1,0.1l-0.9,0.6  c0,0-0.1,0-0.1,0C171,45.8,170.9,45.8,170.9,45.7z"/>
<path class="st2" d="M175,46.3c0.2,0,0.2,0.1,0.2,0.2V47c0,0.1,0,0.1,0,0.1c0,0,0.1,0,0.1-0.1c0.1-0.1,0.3-0.2,0.4-0.3  c0.2-0.1,0.4-0.2,0.6-0.3c0.2-0.1,0.5-0.1,0.8-0.1c0.5,0,0.9,0.1,1.3,0.4c0.4,0.2,0.7,0.6,0.9,1.1c0.2,0.5,0.3,1.1,0.3,1.8  c0,0.8-0.1,1.4-0.3,1.9c-0.2,0.5-0.5,0.9-0.9,1.1c-0.4,0.2-0.8,0.4-1.4,0.4c-0.3,0-0.6-0.1-0.9-0.2c-0.3-0.1-0.5-0.3-0.7-0.5  c-0.1-0.1-0.1-0.1-0.2-0.1s0,0.1,0,0.2v2.2c0,0.1-0.1,0.2-0.2,0.2h-1.2c-0.1,0-0.2-0.1-0.2-0.2v-7.9c0-0.1,0-0.1,0-0.2  c0,0,0.1-0.1,0.2-0.1H175z M175.2,51.1c0.2,0.2,0.4,0.4,0.6,0.5c0.2,0.1,0.5,0.2,0.7,0.2c0.3,0,0.6-0.1,0.8-0.2  c0.2-0.2,0.4-0.4,0.6-0.8c0.1-0.4,0.2-0.8,0.2-1.4c0-0.5-0.1-1-0.2-1.3c-0.1-0.3-0.3-0.5-0.6-0.7c-0.2-0.1-0.5-0.2-0.8-0.2  c-0.3,0-0.5,0.1-0.7,0.2c-0.2,0.1-0.4,0.2-0.5,0.4c-0.1,0.2-0.2,0.3-0.2,0.5V51.1z"/>
<path class="st2" d="M182.2,50c0,0.3,0.1,0.6,0.2,0.9c0.2,0.3,0.4,0.5,0.6,0.6c0.3,0.1,0.6,0.2,0.9,0.2c0.3,0,0.6-0.1,0.9-0.2  c0.3-0.1,0.5-0.4,0.8-0.7c0,0,0.1-0.1,0.1-0.1c0,0,0.1,0,0.1,0l0.7,0.3c0.1,0,0.1,0.1,0,0.2c-0.2,0.4-0.5,0.6-0.8,0.9  c-0.3,0.2-0.6,0.4-0.9,0.5c-0.3,0.1-0.7,0.1-1.1,0.1c-0.6,0-1.2-0.1-1.6-0.4c-0.5-0.3-0.9-0.6-1.1-1.1c-0.3-0.5-0.4-1-0.4-1.7  c0-0.7,0.1-1.3,0.4-1.8c0.3-0.5,0.7-0.9,1.2-1.2c0.5-0.3,1-0.4,1.6-0.4c0.6,0,1.1,0.1,1.6,0.4c0.5,0.3,0.8,0.6,1.1,1.1  c0.3,0.5,0.4,1.1,0.4,1.8c0,0.1,0,0.1,0,0.2c0,0-0.1,0.1-0.2,0.1h-4.2c0,0-0.1,0-0.1,0C182.2,49.9,182.2,49.9,182.2,50z M185,48.9  c0.1,0,0.1,0,0.2,0c0,0,0-0.1,0-0.1c0-0.2-0.1-0.5-0.2-0.7c-0.1-0.2-0.3-0.4-0.5-0.6c-0.2-0.2-0.5-0.2-0.8-0.2  c-0.3,0-0.6,0.1-0.8,0.2c-0.2,0.2-0.4,0.4-0.6,0.6c-0.1,0.3-0.2,0.5-0.2,0.9H185z"/>
<path class="st2" d="M188.1,52.7c-0.1,0-0.2-0.1-0.2-0.2v-5.9c0-0.1,0.1-0.2,0.2-0.2h1.2c0.1,0,0.2,0.1,0.2,0.2v0.6c0,0,0,0.1,0,0.1  c0,0,0.1,0,0.1,0c0.2-0.2,0.5-0.4,0.7-0.5c0.2-0.1,0.4-0.3,0.7-0.3c0.2-0.1,0.5-0.1,0.8-0.1c0.6,0,1.1,0.2,1.4,0.5  c0.3,0.3,0.5,0.8,0.5,1.3v4.4c0,0.2-0.1,0.3-0.3,0.3h-1.1c-0.1,0-0.1,0-0.2,0c0,0,0-0.1,0-0.2v-4.1c0-0.3-0.1-0.6-0.3-0.7  c-0.2-0.2-0.4-0.3-0.8-0.3c-0.2,0-0.4,0-0.5,0.1c-0.2,0.1-0.3,0.1-0.5,0.3c-0.2,0.1-0.3,0.3-0.5,0.5v4.3c0,0.2-0.1,0.2-0.3,0.2  H188.1z"/>
<path class="st2" d="M199.5,52.7c-0.1,0-0.1,0-0.2,0c0,0-0.1-0.1-0.1-0.2v-0.4c0-0.1,0-0.1,0-0.1c0,0-0.1,0-0.1,0  c-0.1,0.1-0.3,0.2-0.4,0.3c-0.2,0.1-0.4,0.2-0.6,0.3c-0.2,0.1-0.5,0.1-0.8,0.1c-0.5,0-0.9-0.1-1.3-0.4c-0.4-0.2-0.7-0.6-0.9-1.1  s-0.3-1.1-0.3-1.8c0-0.7,0.1-1.3,0.3-1.8c0.2-0.5,0.6-0.9,1-1.2c0.4-0.3,0.9-0.4,1.4-0.4c0.4,0,0.7,0.1,0.9,0.2  c0.3,0.1,0.5,0.3,0.7,0.5c0.1,0,0.1,0.1,0.2,0.1c0,0,0-0.1,0-0.2V44c0-0.1,0.1-0.2,0.2-0.2h1.2c0.1,0,0.2,0.1,0.2,0.2v8.5  c0,0.1,0,0.1-0.1,0.2c0,0-0.1,0-0.2,0H199.5z M199.2,47.9c-0.2-0.2-0.4-0.4-0.6-0.5c-0.2-0.1-0.4-0.2-0.7-0.2  c-0.3,0-0.6,0.1-0.8,0.3c-0.2,0.2-0.4,0.4-0.6,0.8c-0.1,0.3-0.2,0.8-0.2,1.3c0,0.5,0.1,1,0.2,1.3c0.1,0.3,0.3,0.6,0.6,0.7  c0.2,0.2,0.5,0.2,0.8,0.2c0.3,0,0.5-0.1,0.7-0.2c0.2-0.1,0.4-0.3,0.5-0.5c0.1-0.2,0.2-0.4,0.2-0.6V47.9z"/>
<path class="st2" d="M206.3,52.4c0,0.1,0,0.2-0.1,0.2c0,0-0.1,0.1-0.2,0.1H205c-0.2,0-0.2-0.1-0.2-0.2l0-8.5c0-0.1,0.1-0.2,0.2-0.2  h1.2c0.1,0,0.2,0.1,0.2,0.2V52.4z"/>
<path class="st2" d="M209.2,50c0,0.3,0.1,0.6,0.2,0.9c0.2,0.3,0.4,0.5,0.6,0.6c0.3,0.1,0.6,0.2,0.9,0.2c0.3,0,0.6-0.1,0.9-0.2  c0.3-0.1,0.5-0.4,0.8-0.7c0,0,0.1-0.1,0.1-0.1c0,0,0.1,0,0.1,0l0.7,0.3c0.1,0,0.1,0.1,0,0.2c-0.2,0.4-0.5,0.6-0.8,0.9  c-0.3,0.2-0.6,0.4-0.9,0.5c-0.3,0.1-0.7,0.1-1.1,0.1c-0.6,0-1.2-0.1-1.6-0.4s-0.9-0.6-1.1-1.1c-0.3-0.5-0.4-1-0.4-1.7  c0-0.7,0.1-1.3,0.4-1.8c0.3-0.5,0.7-0.9,1.2-1.2c0.5-0.3,1-0.4,1.6-0.4c0.6,0,1.1,0.1,1.6,0.4c0.5,0.3,0.8,0.6,1.1,1.1  c0.3,0.5,0.4,1.1,0.4,1.8c0,0.1,0,0.1,0,0.2c0,0-0.1,0.1-0.2,0.1h-4.2c0,0-0.1,0-0.1,0C209.2,49.9,209.2,49.9,209.2,50z M212,48.9  c0.1,0,0.1,0,0.2,0c0,0,0-0.1,0-0.1c0-0.2-0.1-0.5-0.2-0.7c-0.1-0.2-0.3-0.4-0.5-0.6c-0.2-0.2-0.5-0.2-0.8-0.2  c-0.3,0-0.6,0.1-0.8,0.2c-0.2,0.2-0.4,0.4-0.6,0.6c-0.1,0.3-0.2,0.5-0.2,0.9H212z"/>
<path class="st2" d="M218.8,47.9c-0.2-0.2-0.4-0.4-0.6-0.5c-0.2-0.1-0.6-0.2-0.9-0.2c-0.3,0-0.6,0.1-0.9,0.2  c-0.2,0.1-0.3,0.3-0.3,0.6c0,0.1,0,0.2,0.1,0.3c0.1,0.1,0.3,0.2,0.6,0.3l1.4,0.4c0.6,0.2,1.1,0.4,1.3,0.7c0.3,0.3,0.4,0.7,0.4,1.1  c0,0.4-0.1,0.8-0.4,1.1c-0.2,0.3-0.6,0.5-1,0.7c-0.4,0.2-0.9,0.2-1.4,0.2c-0.7,0-1.3-0.1-1.8-0.4c-0.5-0.3-0.8-0.6-1-0.9  c0,0,0-0.1,0-0.1c0,0,0-0.1,0.1-0.1l0.7-0.4c0.1,0,0.1-0.1,0.2,0c0,0,0.1,0,0.1,0.1c0.1,0.2,0.3,0.3,0.4,0.5  c0.2,0.1,0.4,0.2,0.6,0.3c0.2,0.1,0.5,0.1,0.8,0.1c0.2,0,0.5,0,0.7-0.1c0.2-0.1,0.4-0.2,0.5-0.3c0.1-0.1,0.2-0.3,0.2-0.4  c0-0.2-0.1-0.3-0.2-0.4s-0.4-0.2-0.7-0.3l-1.2-0.3c-0.6-0.1-1.1-0.4-1.3-0.6c-0.3-0.3-0.4-0.6-0.4-1.1c0-0.4,0.1-0.8,0.3-1.1  c0.2-0.3,0.5-0.5,0.9-0.7c0.4-0.2,0.9-0.3,1.4-0.3c0.6,0,1.1,0.1,1.5,0.3c0.4,0.2,0.7,0.5,0.9,0.8c0,0,0.1,0.1,0.1,0.1  c0,0,0,0.1-0.1,0.1L219,48c0,0-0.1,0-0.1,0C218.8,48,218.8,48,218.8,47.9z"/>
<path class="st2" d="M225.1,47.9c-0.2-0.2-0.4-0.4-0.6-0.5c-0.2-0.1-0.6-0.2-0.9-0.2c-0.3,0-0.6,0.1-0.9,0.2  c-0.2,0.1-0.3,0.3-0.3,0.6c0,0.1,0,0.2,0.1,0.3c0.1,0.1,0.3,0.2,0.6,0.3l1.4,0.4c0.6,0.2,1.1,0.4,1.3,0.7c0.3,0.3,0.4,0.7,0.4,1.1  c0,0.4-0.1,0.8-0.4,1.1c-0.2,0.3-0.6,0.5-1,0.7c-0.4,0.2-0.9,0.2-1.4,0.2c-0.7,0-1.3-0.1-1.8-0.4c-0.5-0.3-0.8-0.6-1-0.9  c0,0,0-0.1,0-0.1c0,0,0-0.1,0.1-0.1l0.7-0.4c0.1,0,0.1-0.1,0.2,0c0,0,0.1,0,0.1,0.1c0.1,0.2,0.3,0.3,0.4,0.5  c0.2,0.1,0.4,0.2,0.6,0.3c0.2,0.1,0.5,0.1,0.8,0.1c0.2,0,0.5,0,0.7-0.1c0.2-0.1,0.4-0.2,0.5-0.3c0.1-0.1,0.2-0.3,0.2-0.4  c0-0.2-0.1-0.3-0.2-0.4s-0.4-0.2-0.7-0.3l-1.2-0.3c-0.6-0.1-1.1-0.4-1.3-0.6c-0.3-0.3-0.4-0.6-0.4-1.1c0-0.4,0.1-0.8,0.3-1.1  c0.2-0.3,0.5-0.5,0.9-0.7c0.4-0.2,0.9-0.3,1.4-0.3c0.6,0,1.1,0.1,1.5,0.3c0.4,0.2,0.7,0.5,0.9,0.8c0,0,0.1,0.1,0.1,0.1  c0,0,0,0.1-0.1,0.1l-0.7,0.4c0,0-0.1,0-0.1,0C225.1,48,225.1,48,225.1,47.9z"/>
<path class="st2" d="M229,52.4c0,0.2-0.1,0.3-0.3,0.3h-1.2c-0.2,0-0.2-0.1-0.2-0.2v-1.4c0-0.1,0.1-0.2,0.2-0.2h1.4  c0.1,0,0.2,0.1,0.2,0.2V52.4z"/>
</svg>